<svg width="54" height="54" viewBox="0 0 54 54" fill="none" xmlns="http://www.w3.org/2000/svg">
<path fill-rule="evenodd" clip-rule="evenodd" d="M27 50.5161C39.9876 50.5161 50.5161 39.9876 50.5161 27C50.5161 14.0124 39.9876 3.48387 27 3.48387C14.0124 3.48387 3.48387 14.0124 3.48387 27C3.48387 39.9876 14.0124 50.5161 27 50.5161ZM27 54C41.9117 54 54 41.9117 54 27C54 12.0883 41.9117 0 27 0C12.0883 0 0 12.0883 0 27C0 41.9117 12.0883 54 27 54Z" fill="white"/>
<path fill-rule="evenodd" clip-rule="evenodd" d="M39.0574 14.1853C39.8974 14.6202 40.2396 15.6816 39.822 16.5561L38.3011 15.7687C39.822 16.5561 39.8221 16.5557 39.822 16.5561L39.8195 16.5612L39.814 16.5727L39.794 16.6141C39.7768 16.6497 39.7517 16.7013 39.7192 16.7676C39.6543 16.9002 39.5595 17.0916 39.4383 17.3318C39.1958 17.812 38.8466 18.4888 38.416 19.2813C37.5588 20.8593 36.3627 22.9275 35.0336 24.8235C33.7428 26.665 32.1839 28.5552 30.5678 29.5625C29.7455 30.0749 28.7152 30.4809 27.5961 30.3152C26.4085 30.1394 25.4894 29.3789 24.8366 28.3331C24.6872 28.0939 24.5696 27.9767 24.5032 27.9238C24.4711 27.8982 24.4508 27.8875 24.4428 27.8836C24.4385 27.8816 24.4361 27.8808 24.4354 27.8805L24.4343 27.8803L24.4323 27.8801C24.4304 27.8799 24.4263 27.8798 24.4198 27.8801C24.407 27.8807 24.3816 27.8834 24.342 27.8941C24.2592 27.9162 24.1273 27.9694 23.9445 28.086C23.128 28.6069 22.0961 29.8529 21.0183 31.5599C19.9818 33.2013 19.0415 35.0408 18.3539 36.4885C18.0121 37.2082 17.7368 37.8225 17.5476 38.2551C17.4531 38.4713 17.3803 38.6417 17.3316 38.7568C17.3073 38.8144 17.289 38.8581 17.2771 38.8867L17.264 38.9182L17.2607 38.9262C17.2607 38.9263 17.2608 38.9261 17.2607 38.9262C16.892 39.824 15.8939 40.2411 15.0314 39.8573C14.1689 39.4735 13.7685 38.4344 14.1371 37.5363L15.6989 38.2312C14.1371 37.5363 14.1369 37.5367 14.1371 37.5363L14.1392 37.5312L14.1438 37.52L14.1604 37.48C14.1748 37.4455 14.1956 37.3958 14.2225 37.332C14.2764 37.2045 14.355 37.0206 14.4558 36.79C14.6573 36.3292 14.9483 35.6801 15.3089 34.9208C16.0263 33.4102 17.0361 31.4283 18.1798 29.617C19.2821 27.8712 20.6606 26.0331 22.1696 25.0704C22.952 24.5712 23.9577 24.1874 25.0647 24.405C26.2012 24.6283 27.0619 25.4079 27.6848 26.4057C27.8241 26.6289 27.933 26.7299 27.9896 26.7719C28.0383 26.8081 28.0617 26.8118 28.0743 26.8137C28.1171 26.82 28.3439 26.8265 28.823 26.5279C29.8096 25.913 31.0308 24.5344 32.2898 22.7385C33.5106 20.9969 34.6342 19.059 35.4592 17.5402C35.8698 16.7844 36.2023 16.1401 36.4313 15.6864C36.5458 15.4596 36.6343 15.2808 36.6935 15.1599C36.7231 15.0995 36.7454 15.0536 36.7601 15.0234L36.7761 14.99L36.7803 14.9813C36.7804 14.9812 36.7803 14.9814 36.7803 14.9813C37.1981 14.107 38.2176 13.7505 39.0574 14.1853Z" fill="white"/>
</svg>
