<svg width="223" height="354" viewBox="0 0 223 354" fill="none" xmlns="http://www.w3.org/2000/svg">
<path d="M37.6083 318.015C44.4083 300.815 59.7749 301.848 66.6083 304.515C80.7749 307.682 115.77 310.515 102.608 336.015C94.6083 351.515 79.8178 355.504 64.1083 351.515C47.9403 347.41 30.8083 335.215 37.6083 318.015Z" fill="#1F1E1E" stroke="black" stroke-width="2"/>
<path d="M161.579 317C153.079 303 130.912 306.333 124.079 309C109.912 312.166 84.9173 304.5 98.0786 330C106.079 345.5 121.869 351.488 137.579 347.5C153.747 343.395 171.177 332.809 161.579 317Z" fill="#1F1E1E" stroke="black" stroke-width="2"/>
<path d="M42.5785 151C34.9118 137.667 21.8099 86.3474 40.5784 57.0003C68.0784 14.0003 120.078 28.5002 132.578 45.5003C144.081 61.1432 159.578 95.0002 139.578 139.5C149.578 130 145.078 136 161.578 106.5C147.117 97.6207 148.989 88.8752 154.078 82.8153C162.878 70.0153 181.245 69.167 191.578 79.0003C201.078 104.667 206.878 163 154.078 191C161.278 218.2 159.412 226.334 157.578 227C159.078 251.334 159.678 301.7 150.078 308.5C138.578 323.5 105.578 325 98.5784 319C89.0784 330 60.5784 323 49.5784 309.5C41.9602 300.151 39.0385 272.889 38.2831 255.355C37.7702 262.882 34.8896 271.413 26.0784 272C14.0784 272.8 9.74511 250.334 9.07845 239C10.4118 216.334 9.07843 187 22.5784 163.5C27.1664 155.514 39.2451 148.334 42.5785 151Z" fill="#35208C" stroke="black" stroke-width="2"/>
<path d="M80.0784 145C80.9982 145.08 81.829 145.154 82.5784 145.222M82.5784 145.222C89.3254 145.838 89.4785 146 88.5784 146L85.5784 145.611L84.0784 145.417M82.5784 145.222L84.0784 145.417M84.0784 145.417C81.5784 160.611 77.7784 193.6 82.5784 204" stroke="black" stroke-width="2"/>
<path d="M132.976 95.783C128.039 125.373 105.109 145.784 82.1247 141.949C59.1405 138.114 44.0792 111.365 49.0163 81.7744C53.9534 52.1841 76.8834 31.7735 99.8675 35.6084C122.852 39.4433 137.913 66.1927 132.976 95.783Z" fill="#4B4B4B" stroke="black" stroke-width="2"/>
<path d="M38.5784 214.5V205C45.3784 201.8 141.702 206.5 157.702 217.5C158.202 217 156.778 217.8 157.578 227C126.078 212.889 76.5784 214.833 38.5784 214.5Z" fill="black" stroke="black" stroke-width="2"/>
<path d="M133.578 96C132.412 106.333 125.778 130.5 108.578 144.5" stroke="black" stroke-width="2" stroke-linecap="round"/>
<path d="M49.5784 79C45.2451 93.8333 44.2784 128.2 75.0784 147" stroke="black" stroke-width="2" stroke-linecap="round"/>
<path d="M49.5784 73C65.7451 84.3333 105.178 103.9 133.578 91.5" stroke="black" stroke-width="2" stroke-linecap="round"/>
<path d="M86.5784 89.5C81.7451 100.167 73.7784 125.4 80.5784 141" stroke="black" stroke-width="2" stroke-linecap="round"/>
<path d="M76.5784 240.5C82.2451 244 97.5784 248.9 113.578 240.5" stroke="black" stroke-width="2" stroke-linecap="round"/>
<path d="M94.4923 245C92.1935 257.517 89.4924 289.842 97.0784 319" stroke="black" stroke-width="2" stroke-linecap="round"/>
<path d="M191.815 48.944L188.807 49.84C186.844 47.1093 185.863 44.848 185.863 43.056C185.863 40.9227 187.441 38.832 190.599 36.784C191.879 35.9307 193.159 35.056 194.439 34.16C195.719 33.264 196.807 32.176 197.703 30.896C198.641 29.616 199.111 28.08 199.111 26.288C199.111 24.4533 198.343 23.024 196.807 22C195.313 20.976 193.564 20.464 191.559 20.464C189.553 20.464 187.911 20.8053 186.631 21.488C186.289 21.6587 186.033 22.064 185.863 22.704C185.692 23.344 185.5 24.8373 185.287 27.184L181.831 26.8C181.489 25.4773 181.319 24.0907 181.319 22.64C181.319 21.1467 181.34 20.1867 181.383 19.76C182.62 19.0347 184.305 18.416 186.439 17.904C188.572 17.3493 190.641 17.072 192.647 17.072C196.145 17.072 199.025 17.9467 201.287 19.696C203.548 21.4027 204.679 23.856 204.679 27.056C204.679 28.72 204.337 30.256 203.655 31.664C203.015 33.072 202.183 34.224 201.159 35.12C200.177 36.016 199.089 36.912 197.895 37.808C196.743 38.704 195.676 39.472 194.695 40.112C192.348 41.648 191.175 43.312 191.175 45.104C191.175 45.9573 191.388 47.2373 191.815 48.944ZM194.247 58.928C194.247 59.9947 193.905 60.8693 193.223 61.552C192.583 62.2347 191.708 62.576 190.599 62.576C189.532 62.576 188.636 62.2773 187.911 61.68C187.228 61.04 186.887 60.1867 186.887 59.12C186.887 58.0533 187.207 57.2213 187.847 56.624C188.529 55.984 189.468 55.664 190.663 55.664C193.052 55.664 194.247 56.752 194.247 58.928Z" fill="#1F1E1E"/>
<path d="M206.661 65.328L205.815 65.58C205.263 64.812 204.987 64.176 204.987 63.672C204.987 63.072 205.431 62.484 206.319 61.908C206.679 61.668 207.039 61.422 207.399 61.17C207.759 60.918 208.065 60.612 208.317 60.252C208.581 59.892 208.713 59.46 208.713 58.956C208.713 58.44 208.497 58.038 208.065 57.75C207.645 57.462 207.153 57.318 206.589 57.318C206.025 57.318 205.563 57.414 205.203 57.606C205.107 57.654 205.035 57.768 204.987 57.948C204.939 58.128 204.885 58.548 204.825 59.208L203.853 59.1C203.757 58.728 203.709 58.338 203.709 57.93C203.709 57.51 203.715 57.24 203.727 57.12C204.075 56.916 204.549 56.742 205.149 56.598C205.749 56.442 206.331 56.364 206.895 56.364C207.879 56.364 208.689 56.61 209.325 57.102C209.961 57.582 210.279 58.272 210.279 59.172C210.279 59.64 210.183 60.072 209.991 60.468C209.811 60.864 209.577 61.188 209.289 61.44C209.013 61.692 208.707 61.944 208.371 62.196C208.047 62.448 207.747 62.664 207.471 62.844C206.811 63.276 206.481 63.744 206.481 64.248C206.481 64.488 206.541 64.848 206.661 65.328ZM207.345 68.136C207.345 68.436 207.249 68.682 207.057 68.874C206.877 69.066 206.631 69.162 206.319 69.162C206.019 69.162 205.767 69.078 205.563 68.91C205.371 68.73 205.275 68.49 205.275 68.19C205.275 67.89 205.365 67.656 205.545 67.488C205.737 67.308 206.001 67.218 206.337 67.218C207.009 67.218 207.345 67.524 207.345 68.136Z" fill="black"/>
<path d="M215.855 49.104L214.727 49.44C213.991 48.416 213.623 47.568 213.623 46.896C213.623 46.096 214.215 45.312 215.399 44.544C215.879 44.224 216.359 43.896 216.839 43.56C217.319 43.224 217.727 42.816 218.063 42.336C218.415 41.856 218.591 41.28 218.591 40.608C218.591 39.92 218.303 39.384 217.727 39C217.167 38.616 216.511 38.424 215.759 38.424C215.007 38.424 214.391 38.552 213.911 38.808C213.783 38.872 213.687 39.024 213.623 39.264C213.559 39.504 213.487 40.064 213.407 40.944L212.111 40.8C211.983 40.304 211.919 39.784 211.919 39.24C211.919 38.68 211.927 38.32 211.943 38.16C212.407 37.888 213.039 37.656 213.839 37.464C214.639 37.256 215.415 37.152 216.167 37.152C217.479 37.152 218.559 37.48 219.407 38.136C220.255 38.776 220.679 39.696 220.679 40.896C220.679 41.52 220.551 42.096 220.295 42.624C220.055 43.152 219.743 43.584 219.359 43.92C218.991 44.256 218.583 44.592 218.135 44.928C217.703 45.264 217.303 45.552 216.935 45.792C216.055 46.368 215.615 46.992 215.615 47.664C215.615 47.984 215.695 48.464 215.855 49.104ZM216.767 52.848C216.767 53.248 216.639 53.576 216.383 53.832C216.143 54.088 215.815 54.216 215.399 54.216C214.999 54.216 214.663 54.104 214.391 53.88C214.135 53.64 214.007 53.32 214.007 52.92C214.007 52.52 214.127 52.208 214.367 51.984C214.623 51.744 214.975 51.624 215.423 51.624C216.319 51.624 216.767 52.032 216.767 52.848Z" fill="black"/>
<path d="M48.7019 166C42.9144 179.008 32.4144 215.735 38.2018 250" stroke="black" stroke-width="2" stroke-linecap="round"/>
<path d="M159.213 102.629C163.68 105.409 183.409 91.874 192.716 84.7591C200.202 71.9998 137.386 54.4794 152.107 76.3205C132.818 87.2411 153.63 99.1544 159.213 102.629Z" fill="black" stroke="black" stroke-width="2" stroke-linecap="round"/>
<path d="M9.70186 241C10.3957 237.223 37.2688 238.27 38.2018 249C39.2019 260.5 37.9055 269.516 27.7019 271C14.2393 272.958 8.83457 245.722 9.70186 241Z" fill="black" stroke="black" stroke-width="2" stroke-linecap="round"/>
</svg>
