<svg width="46" height="46" viewBox="0 0 46 46" fill="none" xmlns="http://www.w3.org/2000/svg">
<circle cx="23" cy="23" r="22" stroke="#35208C" stroke-width="2"/>
<path d="M15.1666 23.613C15.7942 23.613 16.303 23.1147 16.303 22.5001C16.303 21.8855 15.7942 21.3872 15.1666 21.3872C14.539 21.3872 14.0303 21.8855 14.0303 22.5001C14.0303 23.1147 14.539 23.613 15.1666 23.613Z" stroke="#35208C" stroke-width="1.5" stroke-linecap="round" stroke-linejoin="round"/>
<path d="M23.4393 23.613C24.0669 23.613 24.5757 23.1147 24.5757 22.5001C24.5757 21.8855 24.0669 21.3872 23.4393 21.3872C22.8117 21.3872 22.303 21.8855 22.303 22.5001C22.303 23.1147 22.8117 23.613 23.4393 23.613Z" stroke="#35208C" stroke-width="1.5" stroke-linecap="round" stroke-linejoin="round"/>
<path d="M31.712 23.613C32.3396 23.613 32.8484 23.1147 32.8484 22.5001C32.8484 21.8855 32.3396 21.3872 31.712 21.3872C31.0845 21.3872 30.5757 21.8855 30.5757 22.5001C30.5757 23.1147 31.0845 23.613 31.712 23.613Z" stroke="#35208C" stroke-width="1.5" stroke-linecap="round" stroke-linejoin="round"/>
</svg>
