<svg width="20" height="20" viewBox="0 0 20 20" fill="none" xmlns="http://www.w3.org/2000/svg">
<path fill-rule="evenodd" clip-rule="evenodd" d="M5.18994 5.18888C5.43404 4.94482 5.82977 4.94486 6.07382 5.18896L10.0003 9.11614L13.9283 5.18888C14.1724 4.94482 14.5681 4.94486 14.8122 5.18896C15.0562 5.43306 15.0562 5.82879 14.8121 6.07284L10.8845 9.99965L14.8121 13.9273C15.0562 14.1713 15.0562 14.5671 14.8121 14.8111C14.568 15.0552 14.1723 15.0552 13.9282 14.8111L10.001 10.8839L6.07378 14.8111C5.8297 15.0552 5.43397 15.0552 5.18989 14.8111C4.94582 14.5671 4.94582 14.1713 5.18989 13.9273L9.11674 10.0004L5.18985 6.07276C4.9458 5.82866 4.94584 5.43293 5.18994 5.18888Z" fill="white"/>
</svg>
