<svg width="14" height="14" viewBox="0 0 14 14" fill="none" xmlns="http://www.w3.org/2000/svg">
<path d="M7 8.75C7.9665 8.75 8.75 7.9665 8.75 7C8.75 6.0335 7.9665 5.25 7 5.25C6.0335 5.25 5.25 6.0335 5.25 7C5.25 7.9665 6.0335 8.75 7 8.75Z" fill="#8A9097"/>
<path d="M13.5362 6.85125C13.0216 5.52022 12.1283 4.36914 10.9667 3.54029C9.80502 2.71143 8.42596 2.24113 6.99994 2.1875C5.57391 2.24113 4.19486 2.71143 3.03321 3.54029C1.87157 4.36914 0.978256 5.52022 0.463686 6.85125C0.428934 6.94737 0.428934 7.05263 0.463686 7.14875C0.978256 8.47978 1.87157 9.63086 3.03321 10.4597C4.19486 11.2886 5.57391 11.7589 6.99994 11.8125C8.42596 11.7589 9.80502 11.2886 10.9667 10.4597C12.1283 9.63086 13.0216 8.47978 13.5362 7.14875C13.5709 7.05263 13.5709 6.94737 13.5362 6.85125ZM6.99994 9.84375C6.43749 9.84375 5.88769 9.67697 5.42003 9.36449C4.95238 9.05202 4.58789 8.60788 4.37265 8.08826C4.15742 7.56863 4.1011 6.99685 4.21083 6.44521C4.32055 5.89358 4.59139 5.38687 4.9891 4.98917C5.38681 4.59146 5.89351 4.32062 6.44515 4.21089C6.99678 4.10117 7.56856 4.15748 8.08819 4.37272C8.60782 4.58795 9.05195 4.95245 9.36443 5.4201C9.6769 5.88775 9.84369 6.43756 9.84369 7C9.84253 7.75385 9.54255 8.4765 9.00949 9.00956C8.47644 9.54261 7.75379 9.84259 6.99994 9.84375Z" fill="#8A9097"/>
</svg>
