<svg width="12" height="12" viewBox="0 0 12 12" fill="none" xmlns="http://www.w3.org/2000/svg">
<path fill-rule="evenodd" clip-rule="evenodd" d="M3.52636 0.0347468C4.16618 0.0063176 4.37018 0 6 0C7.62982 0 7.83382 0.00684406 8.47309 0.0347468C9.11236 0.0626496 9.54873 0.161099 9.93055 0.303772C10.3304 0.449603 10.6931 0.677563 10.9931 0.972385C11.2985 1.26142 11.5342 1.61099 11.6847 1.99742C11.8331 2.36594 11.9345 2.78712 11.964 3.40308C11.9935 4.02168 12 4.21858 12 5.79114C12 7.36422 11.9929 7.56112 11.964 8.17867C11.9351 8.79463 11.8331 9.21581 11.6847 9.58433C11.5342 9.97081 11.2982 10.321 10.9931 10.6104C10.6931 10.9052 10.3304 11.1327 9.93055 11.278C9.54873 11.4212 9.11236 11.5191 8.47418 11.5475C7.83382 11.576 7.62982 11.5823 6 11.5823C4.37018 11.5823 4.16618 11.5754 3.52636 11.5475C2.88818 11.5196 2.45182 11.4212 2.07 11.278C1.66959 11.1327 1.30681 10.9048 1.00691 10.6104C0.701662 10.3212 0.465444 9.97123 0.314727 9.58486C0.166909 9.21633 0.0654545 8.79516 0.036 8.17919C0.00654545 7.56059 0 7.3637 0 5.79114C0 4.21805 0.0070909 4.02116 0.036 3.40414C0.0649091 2.78712 0.166909 2.36594 0.314727 1.99742C0.465667 1.61103 0.702065 1.26105 1.00745 0.971858C1.30693 0.677301 1.66935 0.44931 2.06945 0.303772C2.45127 0.161099 2.88764 0.063176 3.52582 0.0347468H3.52636ZM8.42455 1.07715C7.79182 1.04925 7.602 1.04346 6 1.04346C4.398 1.04346 4.20818 1.04925 3.57545 1.07715C2.99018 1.10295 2.67273 1.19719 2.46109 1.27668C2.18127 1.38198 1.98109 1.50675 1.77109 1.70944C1.57202 1.89636 1.41883 2.12392 1.32273 2.37542C1.24036 2.57969 1.14273 2.88609 1.116 3.45099C1.08709 4.06169 1.08109 4.2449 1.08109 5.79114C1.08109 7.33737 1.08709 7.52058 1.116 8.13128C1.14273 8.69618 1.24036 9.00259 1.32273 9.20686C1.41873 9.45798 1.572 9.68594 1.77109 9.87284C1.96473 10.065 2.20091 10.2129 2.46109 10.3056C2.67273 10.3851 2.99018 10.4793 3.57545 10.5051C4.20818 10.533 4.39745 10.5388 6 10.5388C7.60255 10.5388 7.79182 10.533 8.42455 10.5051C9.00982 10.4793 9.32727 10.3851 9.53891 10.3056C9.81873 10.2003 10.0189 10.0755 10.2289 9.87284C10.428 9.68594 10.5813 9.45798 10.6773 9.20686C10.7596 9.00259 10.8573 8.69618 10.884 8.13128C10.9129 7.52058 10.9189 7.33737 10.9189 5.79114C10.9189 4.2449 10.9129 4.06169 10.884 3.45099C10.8573 2.88609 10.7596 2.57969 10.6773 2.37542C10.5682 2.10534 10.4389 1.91213 10.2289 1.70944C10.0352 1.51732 9.79947 1.36945 9.53891 1.27668C9.32727 1.19719 9.00982 1.10295 8.42455 1.07715ZM5.23364 7.57639C5.66163 7.74835 6.13821 7.77156 6.58196 7.64205C7.02572 7.51254 7.40912 7.23835 7.6667 6.86631C7.92427 6.49427 8.04003 6.04746 7.99421 5.60219C7.94838 5.15692 7.74382 4.74082 7.41545 4.42496C7.20613 4.22304 6.95302 4.06844 6.67436 3.97227C6.3957 3.8761 6.09842 3.84077 5.80391 3.8688C5.5094 3.89684 5.22499 3.98756 4.97117 4.13441C4.71734 4.28127 4.50041 4.48063 4.33598 4.71812C4.17156 4.95561 4.06374 5.22534 4.02028 5.50788C3.97682 5.79042 3.99881 6.07874 4.08466 6.3521C4.17051 6.62545 4.31808 6.87703 4.51676 7.08873C4.71543 7.30043 4.96027 7.46698 5.23364 7.57639ZM3.81927 3.68632C4.10565 3.40991 4.44563 3.19066 4.8198 3.04106C5.19397 2.89147 5.595 2.81448 6 2.81448C6.405 2.81448 6.80603 2.89147 7.1802 3.04106C7.55437 3.19065 7.89435 3.40991 8.18073 3.68632C8.4671 3.96273 8.69427 4.29088 8.84926 4.65202C9.00424 5.01316 9.08401 5.40024 9.08401 5.79114C9.08401 6.18204 9.00424 6.56911 8.84926 6.93026C8.69427 7.2914 8.4671 7.61954 8.18073 7.89595C7.60236 8.45419 6.81793 8.7678 6 8.7678C5.18207 8.7678 4.39764 8.45419 3.81927 7.89595C3.24091 7.33772 2.91599 6.5806 2.91599 5.79114C2.91599 5.00168 3.24091 4.24455 3.81927 3.68632ZM9.768 3.25778C9.83897 3.19316 9.89578 3.11546 9.93507 3.02928C9.97437 2.94309 9.99535 2.85017 9.99677 2.75602C9.9982 2.66187 9.98003 2.56839 9.94335 2.48114C9.90668 2.39388 9.85224 2.31462 9.78325 2.24803C9.71427 2.18145 9.63214 2.12891 9.54174 2.09351C9.45134 2.05811 9.3545 2.04057 9.25695 2.04195C9.1594 2.04332 9.06313 2.06357 8.97383 2.1015C8.88454 2.13942 8.80404 2.19426 8.73709 2.26276C8.6069 2.39597 8.53562 2.57291 8.53838 2.75602C8.54115 2.93913 8.61774 3.11399 8.7519 3.24348C8.88607 3.37297 9.06723 3.4469 9.25695 3.44957C9.44666 3.45224 9.62998 3.38344 9.768 3.25778Z" fill="black"/>
</svg>
