<svg width="21" height="21" viewBox="0 0 21 21" fill="none" xmlns="http://www.w3.org/2000/svg">
<path fill-rule="evenodd" clip-rule="evenodd" d="M6.17114 0.063C7.29082 0.0114545 7.64782 0 10.5 0C13.3522 0 13.7092 0.0124091 14.8279 0.063C15.9466 0.113591 16.7103 0.292091 17.3785 0.550773C18.0781 0.815182 18.7129 1.2285 19.2379 1.76305C19.7725 2.28709 20.1848 2.92091 20.4483 3.62155C20.7079 4.28973 20.8855 5.05336 20.937 6.17018C20.9885 7.29177 21 7.64877 21 10.5C21 13.3522 20.9876 13.7092 20.937 14.8289C20.8864 15.9457 20.7079 16.7093 20.4483 17.3775C20.1848 18.0782 19.7718 18.7131 19.2379 19.2379C18.7129 19.7725 18.0781 20.1848 17.3785 20.4483C16.7103 20.7079 15.9466 20.8855 14.8298 20.937C13.7092 20.9885 13.3522 21 10.5 21C7.64782 21 7.29082 20.9876 6.17114 20.937C5.05432 20.8864 4.29068 20.7079 3.6225 20.4483C2.92179 20.1848 2.28692 19.7717 1.76209 19.2379C1.22791 18.7135 0.814528 18.079 0.550773 17.3785C0.292091 16.7103 0.114545 15.9466 0.063 14.8298C0.0114545 13.7082 0 13.3512 0 10.5C0 7.64782 0.0124091 7.29082 0.063 6.17209C0.113591 5.05336 0.292091 4.28973 0.550773 3.62155C0.814917 2.92099 1.22861 2.28644 1.76305 1.76209C2.28713 1.22802 2.92136 0.814651 3.62155 0.550773C4.28973 0.292091 5.05336 0.114545 6.17018 0.063H6.17114ZM14.743 1.953C13.6357 1.90241 13.3035 1.89191 10.5 1.89191C7.6965 1.89191 7.36432 1.90241 6.25705 1.953C5.23282 1.99977 4.67727 2.17064 4.30691 2.31477C3.81723 2.50568 3.46691 2.73191 3.09941 3.09941C2.75104 3.43832 2.48294 3.85091 2.31477 4.30691C2.17064 4.67727 1.99977 5.23282 1.953 6.25705C1.90241 7.36432 1.89191 7.6965 1.89191 10.5C1.89191 13.3035 1.90241 13.6357 1.953 14.743C1.99977 15.7672 2.17064 16.3227 2.31477 16.6931C2.48277 17.1484 2.751 17.5617 3.09941 17.9006C3.43827 18.249 3.85159 18.5172 4.30691 18.6852C4.67727 18.8294 5.23282 19.0002 6.25705 19.047C7.36432 19.0976 7.69555 19.1081 10.5 19.1081C13.3045 19.1081 13.6357 19.0976 14.743 19.047C15.7672 19.0002 16.3227 18.8294 16.6931 18.6852C17.1828 18.4943 17.5331 18.2681 17.9006 17.9006C18.249 17.5617 18.5172 17.1484 18.6852 16.6931C18.8294 16.3227 19.0002 15.7672 19.047 14.743C19.0976 13.6357 19.1081 13.3035 19.1081 10.5C19.1081 7.6965 19.0976 7.36432 19.047 6.25705C19.0002 5.23282 18.8294 4.67727 18.6852 4.30691C18.4943 3.81723 18.2681 3.46691 17.9006 3.09941C17.5617 2.75107 17.1491 2.48297 16.6931 2.31477C16.3227 2.17064 15.7672 1.99977 14.743 1.953ZM9.15886 13.7369C9.90786 14.0486 10.7419 14.0907 11.5184 13.8559C12.295 13.6211 12.966 13.124 13.4167 12.4494C13.8675 11.7749 14.0701 10.9647 13.9899 10.1574C13.9097 9.3501 13.5517 8.59566 12.977 8.02295C12.6107 7.65686 12.1678 7.37655 11.6801 7.20219C11.1925 7.02782 10.6722 6.96375 10.1568 7.01459C9.64145 7.06542 9.14374 7.2299 8.69954 7.49617C8.25534 7.76244 7.87571 8.12389 7.58797 8.55449C7.30023 8.9851 7.11154 9.47414 7.03549 9.98642C6.95944 10.4987 6.99792 11.0215 7.14815 11.5171C7.29839 12.0127 7.55664 12.4689 7.90432 12.8527C8.25201 13.2365 8.68047 13.5385 9.15886 13.7369ZM6.68373 6.68373C7.18489 6.18257 7.77985 5.78503 8.43465 5.5138C9.08945 5.24257 9.79125 5.10297 10.5 5.10297C11.2087 5.10297 11.9106 5.24257 12.5654 5.5138C13.2201 5.78503 13.8151 6.18257 14.3163 6.68373C14.8174 7.18489 15.215 7.77985 15.4862 8.43465C15.7574 9.08945 15.897 9.79125 15.897 10.5C15.897 11.2087 15.7574 11.9106 15.4862 12.5654C15.215 13.2201 14.8174 13.8151 14.3163 14.3163C13.3041 15.3284 11.9314 15.897 10.5 15.897C9.06862 15.897 7.69587 15.3284 6.68373 14.3163C5.67159 13.3041 5.10298 11.9314 5.10298 10.5C5.10298 9.06862 5.67159 7.69587 6.68373 6.68373ZM17.094 5.90673C17.2182 5.78958 17.3176 5.6487 17.3864 5.49243C17.4551 5.33616 17.4919 5.16769 17.4944 4.99698C17.4968 4.82627 17.4651 4.6568 17.4009 4.49859C17.3367 4.34039 17.2414 4.19667 17.1207 4.07595C17 3.95522 16.8562 3.85995 16.698 3.79577C16.5398 3.73158 16.3704 3.6998 16.1997 3.70228C16.0289 3.70477 15.8605 3.74149 15.7042 3.81026C15.5479 3.87902 15.4071 3.97845 15.2899 4.10264C15.0621 4.34416 14.9373 4.66498 14.9422 4.99698C14.947 5.32898 15.081 5.64602 15.3158 5.8808C15.5506 6.11559 15.8677 6.24963 16.1997 6.25447C16.5317 6.25931 16.8525 6.13457 17.094 5.90673Z" fill="white"/>
</svg>
