<svg width="32" height="32" viewBox="0 0 32 32" fill="none" xmlns="http://www.w3.org/2000/svg">
<path d="M27.9293 11.0733C27.9159 10.0634 27.7268 9.06364 27.3706 8.11861C27.0618 7.32148 26.59 6.59754 25.9855 5.99305C25.381 5.38856 24.6571 4.91681 23.86 4.60794C22.9271 4.25775 21.9415 4.0684 20.9453 4.04794C19.6626 3.99061 19.256 3.97461 16 3.97461C12.744 3.97461 12.3266 3.97461 11.0533 4.04794C10.0575 4.06855 9.07244 4.2579 8.13997 4.60794C7.34272 4.9166 6.61867 5.38827 6.01415 5.99279C5.40963 6.5973 4.93796 7.32135 4.6293 8.11861C4.27841 9.05079 4.08947 10.0361 4.07064 11.0319C4.01331 12.3159 3.99597 12.7226 3.99597 15.9786C3.99597 19.2346 3.99597 19.6506 4.07064 20.9253C4.09064 21.9226 4.27864 22.9066 4.6293 23.8413C4.93848 24.6383 5.4105 25.3621 6.01522 25.9663C6.61994 26.5706 7.34406 27.042 8.14131 27.3506C9.07122 27.7149 10.0565 27.9178 11.0546 27.9506C12.3386 28.0079 12.7453 28.0253 16.0013 28.0253C19.2573 28.0253 19.6746 28.0253 20.948 27.9506C21.9442 27.931 22.9298 27.7421 23.8626 27.3919C24.6596 27.0827 25.3833 26.6108 25.9878 26.0064C26.5922 25.402 27.0641 24.6782 27.3733 23.8813C27.724 22.9479 27.912 21.9639 27.932 20.9653C27.9893 19.6826 28.0066 19.2759 28.0066 16.0186C28.004 12.7626 28.004 12.3493 27.9293 11.0733ZM15.992 22.1359C12.5866 22.1359 9.82797 19.3773 9.82797 15.9719C9.82797 12.5666 12.5866 9.80794 15.992 9.80794C17.6268 9.80794 19.1946 10.4574 20.3506 11.6133C21.5066 12.7693 22.156 14.3371 22.156 15.9719C22.156 17.6067 21.5066 19.1746 20.3506 20.3306C19.1946 21.4865 17.6268 22.1359 15.992 22.1359ZM22.4013 11.0173C22.2125 11.0175 22.0255 10.9804 21.8511 10.9082C21.6766 10.8361 21.5181 10.7302 21.3846 10.5967C21.2511 10.4632 21.1452 10.3047 21.073 10.1302C21.0009 9.95573 20.9638 9.76875 20.964 9.57994C20.964 9.39128 21.0011 9.20446 21.0733 9.03016C21.1455 8.85585 21.2514 8.69747 21.3848 8.56407C21.5182 8.43066 21.6765 8.32484 21.8509 8.25264C22.0252 8.18044 22.212 8.14328 22.4006 8.14328C22.5893 8.14328 22.7761 8.18044 22.9504 8.25264C23.1247 8.32484 23.2831 8.43066 23.4165 8.56407C23.5499 8.69747 23.6557 8.85585 23.7279 9.03016C23.8001 9.20446 23.8373 9.39128 23.8373 9.57994C23.8373 10.3746 23.1946 11.0173 22.4013 11.0173Z" fill="white"/>
<path d="M15.992 19.9758C18.2034 19.9758 19.996 18.1831 19.996 15.9718C19.996 13.7604 18.2034 11.9678 15.992 11.9678C13.7807 11.9678 11.988 13.7604 11.988 15.9718C11.988 18.1831 13.7807 19.9758 15.992 19.9758Z" fill="white"/>
</svg>
