<svg width="12" height="12" viewBox="0 0 12 12" fill="none" xmlns="http://www.w3.org/2000/svg">
<path d="M2.1814 9.81835C1.3753 9.01225 1.3753 7.70174 2.1814 6.89564L4.06702 5.01002L3.17135 4.11435L1.28573 5.99997C-0.0153432 7.30105 -0.0153432 9.41294 1.28573 10.714C2.58681 12.0151 4.6987 12.0151 5.99978 10.714L7.88539 8.8284L6.98973 7.93273L5.10411 9.81835C4.29801 10.6245 2.9875 10.6245 2.1814 9.81835ZM4.58556 8.35699L8.3568 4.58576L7.41399 3.64295L3.64275 7.41419L4.58556 8.35699ZM5.99978 1.28593L4.11416 3.17154L5.00983 4.06721L6.89544 2.1816C7.70155 1.37549 9.01205 1.37549 9.81815 2.18159C10.6243 2.9877 10.6243 4.2982 9.81815 5.1043L7.93254 6.98992L8.8282 7.88559L10.7138 5.99997C12.0149 4.6989 12.0149 2.587 10.7138 1.28593C9.41274 -0.0151494 7.30085 -0.0151497 5.99978 1.28593Z" fill="black"/>
</svg>
