<svg width="201" height="89" viewBox="0 0 201 89" fill="none" xmlns="http://www.w3.org/2000/svg">
<path d="M82.3921 53.5355V35.9062H88.0838C89.4606 35.9062 90.5855 36.1329 91.4586 36.5862C92.3317 37.0395 92.9781 37.6607 93.3978 38.4499C93.8176 39.239 94.0275 40.112 94.0275 41.0691C94.0275 42.1772 93.7252 43.1762 93.1208 44.0661C92.5332 44.9559 91.6097 45.5855 90.3505 45.9549L94.2038 53.5355H91.7105L88.1342 46.2571H87.9831H84.5076V53.5355H82.3921ZM84.5076 44.5949H87.9327C89.2927 44.5949 90.2833 44.2675 90.9045 43.6127C91.5258 42.9579 91.8364 42.1184 91.8364 41.0943C91.8364 40.0533 91.5258 39.2306 90.9045 38.6261C90.3001 38.0049 89.3011 37.6943 87.9076 37.6943H84.5076V44.5949Z" fill="white"/>
<path d="M102.049 53.8377C100.857 53.8377 99.799 53.5691 98.8755 53.0318C97.9521 52.4778 97.2217 51.7138 96.6845 50.74C96.164 49.7662 95.9037 48.6161 95.9037 47.2897C95.9037 45.9801 96.164 44.8384 96.6845 43.8646C97.2049 42.874 97.9269 42.11 98.8503 41.5728C99.7906 41.0187 100.874 40.7417 102.099 40.7417C103.308 40.7417 104.349 41.0187 105.222 41.5728C106.112 42.11 106.792 42.8236 107.262 43.7135C107.732 44.6033 107.967 45.5604 107.967 46.5845C107.967 46.7692 107.959 46.9539 107.942 47.1386C107.942 47.3233 107.942 47.5332 107.942 47.7682H97.9941C98.0444 48.7252 98.2627 49.5228 98.6489 50.1608C99.0518 50.782 99.5471 51.2521 100.135 51.5711C100.739 51.8901 101.377 52.0496 102.049 52.0496C102.922 52.0496 103.652 51.8482 104.24 51.4452C104.828 51.0422 105.256 50.4966 105.524 49.8082H107.615C107.279 50.9667 106.632 51.9321 105.675 52.7044C104.735 53.46 103.526 53.8377 102.049 53.8377ZM102.049 42.5298C101.041 42.5298 100.143 42.8404 99.354 43.4616C98.5817 44.0661 98.1368 44.9559 98.0192 46.1312H105.877C105.827 45.0063 105.44 44.1248 104.718 43.4868C103.996 42.8488 103.107 42.5298 102.049 42.5298Z" fill="white"/>
<path d="M110.771 53.5355V41.0439H112.685L112.811 43.2853C113.214 42.4962 113.793 41.875 114.549 41.4217C115.304 40.9683 116.161 40.7417 117.118 40.7417C118.595 40.7417 119.771 41.195 120.644 42.1016C121.533 42.9915 121.978 44.3683 121.978 46.2319V53.5355H119.863V46.4586C119.863 43.8562 118.788 42.555 116.639 42.555C115.565 42.555 114.666 42.9495 113.944 43.7387C113.239 44.511 112.887 45.6191 112.887 47.063V53.5355H110.771Z" fill="white"/>
<path d="M130.12 53.5355C128.978 53.5355 128.08 53.2585 127.425 52.7044C126.77 52.1504 126.443 51.1514 126.443 49.7074V42.832H124.277V41.0439H126.443L126.72 38.0469H128.558V41.0439H132.235V42.832H128.558V49.7074C128.558 50.4966 128.718 51.0338 129.037 51.3193C129.356 51.5879 129.918 51.7222 130.724 51.7222H132.034V53.5355H130.12Z" fill="white"/>
<path d="M139.078 53.8377C138.038 53.8377 137.173 53.6615 136.484 53.3089C135.796 52.9563 135.284 52.4862 134.948 51.8985C134.612 51.3109 134.444 50.6729 134.444 49.9845C134.444 48.7085 134.931 47.7262 135.905 47.0379C136.879 46.3495 138.205 46.0053 139.884 46.0053H143.259V45.8542C143.259 44.7628 142.974 43.9401 142.403 43.3861C141.832 42.8152 141.068 42.5298 140.111 42.5298C139.288 42.5298 138.575 42.7397 137.97 43.1594C137.383 43.5624 137.013 44.1584 136.862 44.9475H134.696C134.78 44.0409 135.083 43.2769 135.603 42.6557C136.14 42.0345 136.803 41.5644 137.593 41.2454C138.382 40.9096 139.221 40.7417 140.111 40.7417C141.857 40.7417 143.167 41.2118 144.04 42.152C144.93 43.0755 145.375 44.3095 145.375 45.8542V53.5355H143.486L143.36 51.2941C143.007 51.9993 142.487 52.6037 141.798 53.1074C141.127 53.5943 140.22 53.8377 139.078 53.8377ZM139.406 52.0496C140.212 52.0496 140.9 51.8398 141.471 51.42C142.059 51.0003 142.504 50.4546 142.806 49.783C143.108 49.1114 143.259 48.4062 143.259 47.6675V47.6423H140.061C138.818 47.6423 137.937 47.8606 137.416 48.2971C136.913 48.7168 136.661 49.2457 136.661 49.8837C136.661 50.5385 136.896 51.0674 137.366 51.4704C137.853 51.8565 138.533 52.0496 139.406 52.0496Z" fill="white"/>
<path d="M152.704 53.8377C151.663 53.8377 150.798 53.6615 150.11 53.3089C149.421 52.9563 148.909 52.4862 148.574 51.8985C148.238 51.3109 148.07 50.6729 148.07 49.9845C148.07 48.7085 148.557 47.7262 149.531 47.0379C150.504 46.3495 151.831 46.0053 153.51 46.0053H156.885V45.8542C156.885 44.7628 156.599 43.9401 156.028 43.3861C155.457 42.8152 154.693 42.5298 153.736 42.5298C152.914 42.5298 152.2 42.7397 151.596 43.1594C151.008 43.5624 150.639 44.1584 150.488 44.9475H148.322C148.406 44.0409 148.708 43.2769 149.228 42.6557C149.766 42.0345 150.429 41.5644 151.218 41.2454C152.007 40.9096 152.847 40.7417 153.736 40.7417C155.483 40.7417 156.792 41.2118 157.665 42.152C158.555 43.0755 159 44.3095 159 45.8542V53.5355H157.111L156.985 51.2941C156.633 51.9993 156.112 52.6037 155.424 53.1074C154.752 53.5943 153.846 53.8377 152.704 53.8377ZM153.031 52.0496C153.837 52.0496 154.526 51.8398 155.096 51.42C155.684 51.0003 156.129 50.4546 156.431 49.783C156.733 49.1114 156.885 48.4062 156.885 47.6675V47.6423H153.686C152.444 47.6423 151.562 47.8606 151.042 48.2971C150.538 48.7168 150.286 49.2457 150.286 49.8837C150.286 50.5385 150.521 51.0674 150.991 51.4704C151.478 51.8565 152.158 52.0496 153.031 52.0496Z" fill="white"/>
<path fill-rule="evenodd" clip-rule="evenodd" d="M42.1848 66.4276C53.9169 66.4276 63.4276 56.9169 63.4276 45.1848C63.4276 33.4527 53.9169 23.942 42.1848 23.942C30.4527 23.942 20.942 33.4527 20.942 45.1848C20.942 56.9169 30.4527 66.4276 42.1848 66.4276ZM42.1848 70.3696C56.094 70.3696 67.3696 59.094 67.3696 45.1848C67.3696 31.2756 56.094 20 42.1848 20C28.2756 20 17 31.2756 17 45.1848C17 59.094 28.2756 70.3696 42.1848 70.3696Z" fill="white"/>
<path fill-rule="evenodd" clip-rule="evenodd" d="M53.7506 32.9774C54.7253 33.4621 55.1225 34.6452 54.6378 35.6198L52.9662 34.7885C54.6378 35.6198 54.6376 35.6202 54.6374 35.6205L54.6298 35.6358L54.6103 35.6746C54.5935 35.7079 54.5693 35.7559 54.5379 35.8174C54.4751 35.9403 54.3839 36.1175 54.2672 36.3395C54.0339 36.7833 53.6981 37.4083 53.2842 38.1401C52.4608 39.5958 51.3092 41.5089 50.0268 43.266C48.7886 44.9625 47.263 46.7495 45.6528 47.7134C44.8312 48.2051 43.7637 48.6185 42.5835 48.4506C41.3237 48.2715 40.3659 47.4967 39.7021 46.4754C39.6288 46.3627 39.57 46.2904 39.5277 46.2453C39.4792 46.2655 39.4106 46.2992 39.3197 46.3549C38.6092 46.7902 37.6574 47.8771 36.6289 49.4417C35.6482 50.9334 34.7558 52.6095 34.101 53.9336C33.776 54.591 33.5142 55.152 33.3345 55.5468C33.2447 55.744 33.1756 55.8993 33.1297 56.0038C33.1067 56.0561 33.0894 56.0956 33.0783 56.1214L33.0661 56.1495L33.0633 56.156C32.6354 57.1567 31.4772 57.6216 30.4764 57.1938C29.4754 56.7661 29.0107 55.6078 29.4385 54.6069L31.2509 55.3814C29.4385 54.6069 29.4387 54.6065 29.4388 54.6061L29.4407 54.6018L29.4453 54.5911L29.4615 54.5535C29.4755 54.5213 29.4956 54.475 29.5217 54.4158C29.5738 54.2974 29.6496 54.1271 29.7467 53.9138C29.9406 53.4876 30.2206 52.8878 30.5675 52.1863C31.2569 50.7922 32.2299 48.9571 33.3349 47.2763C34.392 45.6684 35.7459 43.9215 37.2602 42.9937C38.0496 42.51 39.1003 42.1156 40.2747 42.3373C41.4834 42.5654 42.3783 43.3594 43.0073 44.3272C43.0799 44.4389 43.1352 44.5029 43.171 44.5378C43.2413 44.5219 43.3885 44.4745 43.6281 44.3311C44.5077 43.8045 45.6415 42.5879 46.8427 40.9422C47.9995 39.3571 49.067 37.5892 49.853 36.1995C50.2437 35.5086 50.5601 34.9198 50.7778 34.5055C50.8866 34.2985 50.9706 34.1355 51.0267 34.0255C51.0548 33.9706 51.0758 33.9289 51.0896 33.9017L51.1045 33.8718L51.1078 33.8654L51.1082 33.8646C51.1082 33.8645 51.1081 33.8646 51.1082 33.8646C51.593 32.8902 52.776 32.4928 53.7506 32.9774ZM43.2192 44.5753C43.2191 44.5762 43.2131 44.5735 43.2016 44.5647C43.2136 44.5699 43.2193 44.5744 43.2192 44.5753ZM39.4637 46.1861C39.4549 46.1817 39.4506 46.1786 39.4507 46.1781C39.4507 46.1776 39.4552 46.1798 39.4637 46.1861Z" fill="white"/>
</svg>
