<svg width="32" height="32" viewBox="0 0 32 32" fill="none" xmlns="http://www.w3.org/2000/svg">
<path d="M28.7377 5.33358C28.6166 5.3211 28.4945 5.3211 28.3733 5.33358H3.48442C3.3249 5.33604 3.16644 5.35996 3.01331 5.40469L15.8577 18.1958L28.7377 5.33358Z" fill="white"/>
<path d="M30.0534 6.56934L17.1111 19.4582C16.778 19.7893 16.3275 19.9752 15.8578 19.9752C15.3881 19.9752 14.9376 19.7893 14.6045 19.4582L1.7778 6.66711C1.73837 6.81204 1.71746 6.96138 1.71558 7.11156V24.8893C1.71558 25.3608 1.90288 25.813 2.23628 26.1464C2.56967 26.4798 3.02186 26.6671 3.49335 26.6671H28.3822C28.8537 26.6671 29.3059 26.4798 29.6393 26.1464C29.9727 25.813 30.16 25.3608 30.16 24.8893V7.11156C30.1529 6.92636 30.117 6.74341 30.0534 6.56934ZM4.71113 24.8893H3.47558V23.6182L9.9378 17.2093L11.1911 18.4627L4.71113 24.8893ZM28.3645 24.8893H27.12L20.64 18.4627L21.8934 17.2093L28.3556 23.6182L28.3645 24.8893Z" fill="white"/>
</svg>
