<svg width="319" height="365" viewBox="0 0 319 365" fill="none" xmlns="http://www.w3.org/2000/svg">
<path d="M159.488 344.988C247.571 344.988 318.976 273.583 318.976 185.5C318.976 97.4172 247.571 26.012 159.488 26.012C71.4052 26.012 0 97.4172 0 185.5C0 273.583 71.4052 344.988 159.488 344.988Z" fill="url(#paint0_linear_2046_1857)"/>
<g filter="url(#filter0_d_2046_1857)">
<path d="M250.928 117.452H68.0485C62.1764 117.452 57.416 122.212 57.416 128.084V351.367C57.416 357.24 62.1764 362 68.0485 362H250.928C256.8 362 261.561 357.24 261.561 351.367V128.084C261.561 122.212 256.8 117.452 250.928 117.452Z" fill="white"/>
</g>
<path d="M138.223 149.349H82.9342C79.4109 149.349 76.5547 152.206 76.5547 155.729C76.5547 159.252 79.4109 162.108 82.9342 162.108H138.223C141.747 162.108 144.603 159.252 144.603 155.729C144.603 152.206 141.747 149.349 138.223 149.349Z" fill="#CEC8E8"/>
<path d="M176.5 176.994H82.9342C79.4109 176.994 76.5547 179.85 76.5547 183.373C76.5547 186.897 79.4109 189.753 82.9342 189.753H176.5C180.024 189.753 182.88 186.897 182.88 183.373C182.88 179.85 180.024 176.994 176.5 176.994Z" fill="#D1D9FE"/>
<path d="M138.223 206.765H82.9342C79.4109 206.765 76.5547 209.621 76.5547 213.144C76.5547 216.668 79.4109 219.524 82.9342 219.524H138.223C141.747 219.524 144.603 216.668 144.603 213.144C144.603 209.621 141.747 206.765 138.223 206.765Z" fill="#CEC8E8"/>
<path d="M176.5 234.409H82.9342C79.4109 234.409 76.5547 237.266 76.5547 240.789C76.5547 244.312 79.4109 247.168 82.9342 247.168H176.5C180.024 247.168 182.88 244.312 182.88 240.789C182.88 237.266 180.024 234.409 176.5 234.409Z" fill="#D1D9FE"/>
<path d="M138.223 264.181H82.9342C79.4109 264.181 76.5547 267.037 76.5547 270.56C76.5547 274.083 79.4109 276.94 82.9342 276.94H138.223C141.747 276.94 144.603 274.083 144.603 270.56C144.603 267.037 141.747 264.181 138.223 264.181Z" fill="#CEC8E8"/>
<path d="M176.5 291.825H82.9342C79.4109 291.825 76.5547 294.681 76.5547 298.205C76.5547 301.728 79.4109 304.584 82.9342 304.584H176.5C180.024 304.584 182.88 301.728 182.88 298.205C182.88 294.681 180.024 291.825 176.5 291.825Z" fill="#D1D9FE"/>
<g filter="url(#filter1_d_2046_1857)">
<path d="M250.928 9H68.0485C62.1764 9 57.416 13.7603 57.416 19.6325V83.4277C57.416 89.2999 62.1764 94.0602 68.0485 94.0602H250.928C256.8 94.0602 261.561 89.2999 261.561 83.4277V19.6325C261.561 13.7603 256.8 9 250.928 9Z" fill="#35208C"/>
</g>
<path d="M138.223 32.3916H82.9342C79.4109 32.3916 76.5547 35.2478 76.5547 38.7711C76.5547 42.2944 79.4109 45.1506 82.9342 45.1506H138.223C141.747 45.1506 144.603 42.2944 144.603 38.7711C144.603 35.2478 141.747 32.3916 138.223 32.3916Z" fill="#CEC8E8"/>
<path d="M176.5 60.0361H82.9342C79.4109 60.0361 76.5547 62.8923 76.5547 66.4157C76.5547 69.939 79.4109 72.7952 82.9342 72.7952H176.5C180.024 72.7952 182.88 69.939 182.88 66.4157C182.88 62.8923 180.024 60.0361 176.5 60.0361Z" fill="white"/>
<defs>
<filter id="filter0_d_2046_1857" x="51.416" y="108.452" width="216.145" height="256.548" filterUnits="userSpaceOnUse" color-interpolation-filters="sRGB">
<feFlood flood-opacity="0" result="BackgroundImageFix"/>
<feColorMatrix in="SourceAlpha" type="matrix" values="0 0 0 0 0 0 0 0 0 0 0 0 0 0 0 0 0 0 127 0" result="hardAlpha"/>
<feOffset dy="-3"/>
<feGaussianBlur stdDeviation="3"/>
<feColorMatrix type="matrix" values="0 0 0 0 0.788235 0 0 0 0 0.803922 0 0 0 0 0.85098 0 0 0 0.349 0"/>
<feBlend mode="normal" in2="BackgroundImageFix" result="effect1_dropShadow_2046_1857"/>
<feBlend mode="normal" in="SourceGraphic" in2="effect1_dropShadow_2046_1857" result="shape"/>
</filter>
<filter id="filter1_d_2046_1857" x="51.416" y="0" width="216.145" height="97.0603" filterUnits="userSpaceOnUse" color-interpolation-filters="sRGB">
<feFlood flood-opacity="0" result="BackgroundImageFix"/>
<feColorMatrix in="SourceAlpha" type="matrix" values="0 0 0 0 0 0 0 0 0 0 0 0 0 0 0 0 0 0 127 0" result="hardAlpha"/>
<feOffset dy="-3"/>
<feGaussianBlur stdDeviation="3"/>
<feColorMatrix type="matrix" values="0 0 0 0 0.788235 0 0 0 0 0.803922 0 0 0 0 0.85098 0 0 0 0.349 0"/>
<feBlend mode="normal" in2="BackgroundImageFix" result="effect1_dropShadow_2046_1857"/>
<feBlend mode="normal" in="SourceGraphic" in2="effect1_dropShadow_2046_1857" result="shape"/>
</filter>
<linearGradient id="paint0_linear_2046_1857" x1="159.488" y1="26.012" x2="159.488" y2="344.988" gradientUnits="userSpaceOnUse">
<stop stop-color="#AF9EF8"/>
<stop offset="1" stop-color="#DAE7FF"/>
</linearGradient>
</defs>
</svg>
