<svg width="18" height="18" viewBox="0 0 18 18" fill="none" xmlns="http://www.w3.org/2000/svg">
<path d="M7.61 10.3196C8.65374 11.3784 9.91664 12.1959 11.31 12.7146L13.195 11.2146C13.2509 11.1761 13.3171 11.1555 13.385 11.1555C13.4529 11.1555 13.5191 11.1761 13.575 11.2146L17.075 13.4696C17.2079 13.5495 17.3204 13.6592 17.4036 13.79C17.4867 13.9208 17.5384 14.0692 17.5544 14.2234C17.5704 14.3776 17.5503 14.5335 17.4958 14.6786C17.4412 14.8237 17.3536 14.9542 17.24 15.0596L15.6 16.6796C15.3651 16.9117 15.0765 17.082 14.7598 17.1753C14.4431 17.2687 14.1082 17.2822 13.785 17.2146C10.5611 16.5488 7.58957 14.9894 5.21 12.7146C2.88324 10.4172 1.27313 7.49405 0.574997 4.29963C0.50603 3.98145 0.520425 3.65084 0.616785 3.33986C0.713146 3.02888 0.888205 2.74806 1.125 2.52463L2.825 0.884625C2.9302 0.776519 3.05849 0.693613 3.20027 0.642114C3.34205 0.590616 3.49365 0.57186 3.6437 0.58725C3.79376 0.60264 3.93839 0.651779 4.06677 0.730986C4.19514 0.810192 4.30393 0.917415 4.385 1.04463L6.715 4.49963C6.75519 4.55388 6.77688 4.61961 6.77688 4.68713C6.77688 4.75464 6.75519 4.82037 6.715 4.87463L5.18 6.71963C5.71279 8.0851 6.54286 9.31484 7.61 10.3196Z" fill="#35208C"/>
</svg>
