<svg width="459" height="271" viewBox="0 0 459 271" fill="none" xmlns="http://www.w3.org/2000/svg">
<ellipse rx="2.39087" ry="2.02159" transform="matrix(-1 0 0 1 456.608 2.13121)" fill="white"/>
<ellipse rx="2.39087" ry="2.02159" transform="matrix(-1 0 0 1 456.608 26.3873)" fill="white"/>
<ellipse rx="2.39087" ry="2.02159" transform="matrix(-1 0 0 1 456.608 50.6468)" fill="white"/>
<ellipse rx="2.39087" ry="2.02159" transform="matrix(-1 0 0 1 456.608 74.9086)" fill="white"/>
<ellipse rx="2.39087" ry="2.02165" transform="matrix(-1 0 0 1 456.608 99.1676)" fill="white"/>
<ellipse rx="2.39087" ry="2.02156" transform="matrix(-1 0 0 1 456.608 123.426)" fill="white"/>
<ellipse rx="2.39087" ry="2.0215" transform="matrix(-1 0 0 1 456.608 147.685)" fill="white"/>
<ellipse rx="2.39087" ry="2.02159" transform="matrix(-1 0 0 1 456.608 171.944)" fill="white"/>
<ellipse rx="2.39087" ry="2.02159" transform="matrix(-1 0 0 1 456.608 196.202)" fill="white"/>
<ellipse rx="2.39087" ry="2.02153" transform="matrix(-1 0 0 1 456.608 220.46)" fill="white"/>
<ellipse rx="2.39087" ry="2.02153" transform="matrix(-1 0 0 1 456.608 244.721)" fill="white"/>
<ellipse rx="2.39087" ry="2.02165" transform="matrix(-1 0 0 1 456.608 268.978)" fill="white"/>
<ellipse rx="2.39087" ry="2.02159" transform="matrix(-1 0 0 1 432.6 2.13121)" fill="white"/>
<ellipse rx="2.39087" ry="2.02159" transform="matrix(-1 0 0 1 432.6 26.3876)" fill="white"/>
<ellipse rx="2.39087" ry="2.02159" transform="matrix(-1 0 0 1 432.6 50.6468)" fill="white"/>
<ellipse rx="2.39087" ry="2.02159" transform="matrix(-1 0 0 1 432.6 74.9086)" fill="white"/>
<ellipse rx="2.39087" ry="2.02165" transform="matrix(-1 0 0 1 432.6 99.1676)" fill="white"/>
<ellipse rx="2.39087" ry="2.02159" transform="matrix(-1 0 0 1 432.6 123.426)" fill="white"/>
<ellipse rx="2.39087" ry="2.0215" transform="matrix(-1 0 0 1 432.6 147.685)" fill="white"/>
<ellipse rx="2.39087" ry="2.02159" transform="matrix(-1 0 0 1 432.6 171.944)" fill="white"/>
<ellipse rx="2.39087" ry="2.02159" transform="matrix(-1 0 0 1 432.6 196.202)" fill="white"/>
<ellipse rx="2.39087" ry="2.02153" transform="matrix(-1 0 0 1 432.6 220.46)" fill="white"/>
<ellipse rx="2.39087" ry="2.02153" transform="matrix(-1 0 0 1 432.6 244.721)" fill="white"/>
<ellipse rx="2.39087" ry="2.02159" transform="matrix(-1 0 0 1 432.6 268.978)" fill="white"/>
<ellipse rx="2.39093" ry="2.02159" transform="matrix(-1 0 0 1 408.874 2.13121)" fill="white"/>
<ellipse rx="2.39087" ry="2.02159" transform="matrix(-1 0 0 1 408.875 26.3876)" fill="white"/>
<ellipse rx="2.39087" ry="2.02159" transform="matrix(-1 0 0 1 408.875 50.6468)" fill="white"/>
<ellipse rx="2.39087" ry="2.02159" transform="matrix(-1 0 0 1 408.875 74.9086)" fill="white"/>
<ellipse rx="2.39087" ry="2.02165" transform="matrix(-1 0 0 1 408.875 99.1676)" fill="white"/>
<ellipse rx="2.39087" ry="2.02159" transform="matrix(-1 0 0 1 408.875 123.426)" fill="white"/>
<ellipse rx="2.39087" ry="2.0215" transform="matrix(-1 0 0 1 408.875 147.685)" fill="white"/>
<ellipse rx="2.39087" ry="2.02159" transform="matrix(-1 0 0 1 408.875 171.944)" fill="white"/>
<ellipse rx="2.39087" ry="2.02159" transform="matrix(-1 0 0 1 408.875 196.202)" fill="white"/>
<ellipse rx="2.39087" ry="2.02153" transform="matrix(-1 0 0 1 408.875 220.46)" fill="white"/>
<ellipse rx="2.39087" ry="2.02153" transform="matrix(-1 0 0 1 408.875 244.721)" fill="white"/>
<ellipse rx="2.39087" ry="2.02159" transform="matrix(-1 0 0 1 408.875 268.978)" fill="white"/>
<ellipse rx="2.39093" ry="2.02159" transform="matrix(-1 0 0 1 384.866 2.13121)" fill="white"/>
<ellipse rx="2.39087" ry="2.02159" transform="matrix(-1 0 0 1 384.866 26.3876)" fill="white"/>
<ellipse rx="2.39087" ry="2.02159" transform="matrix(-1 0 0 1 384.866 50.6468)" fill="white"/>
<ellipse rx="2.39087" ry="2.02159" transform="matrix(-1 0 0 1 384.866 74.9086)" fill="white"/>
<ellipse rx="2.39087" ry="2.02165" transform="matrix(-1 0 0 1 384.866 99.1676)" fill="white"/>
<ellipse rx="2.39087" ry="2.02159" transform="matrix(-1 0 0 1 384.866 123.426)" fill="white"/>
<ellipse rx="2.39087" ry="2.0215" transform="matrix(-1 0 0 1 384.866 147.685)" fill="white"/>
<ellipse rx="2.39087" ry="2.02159" transform="matrix(-1 0 0 1 384.866 171.944)" fill="white"/>
<ellipse rx="2.39087" ry="2.02159" transform="matrix(-1 0 0 1 384.866 196.202)" fill="white"/>
<ellipse rx="2.39087" ry="2.02153" transform="matrix(-1 0 0 1 384.866 220.46)" fill="white"/>
<ellipse rx="2.39087" ry="2.02153" transform="matrix(-1 0 0 1 384.866 244.721)" fill="white"/>
<ellipse rx="2.39087" ry="2.02159" transform="matrix(-1 0 0 1 384.866 268.978)" fill="white"/>
<ellipse rx="2.39087" ry="2.02159" transform="matrix(-1 0 0 1 360.908 2.13121)" fill="white"/>
<ellipse rx="2.39087" ry="2.02159" transform="matrix(-1 0 0 1 360.908 26.3876)" fill="white"/>
<ellipse rx="2.39087" ry="2.02159" transform="matrix(-1 0 0 1 360.908 50.6468)" fill="white"/>
<ellipse rx="2.39087" ry="2.02159" transform="matrix(-1 0 0 1 360.908 74.9086)" fill="white"/>
<ellipse rx="2.39087" ry="2.02165" transform="matrix(-1 0 0 1 360.908 99.1676)" fill="white"/>
<ellipse rx="2.39087" ry="2.02159" transform="matrix(-1 0 0 1 360.908 123.426)" fill="white"/>
<ellipse rx="2.39087" ry="2.0215" transform="matrix(-1 0 0 1 360.908 147.685)" fill="white"/>
<ellipse rx="2.39087" ry="2.02159" transform="matrix(-1 0 0 1 360.908 171.944)" fill="white"/>
<ellipse rx="2.39087" ry="2.02159" transform="matrix(-1 0 0 1 360.908 196.202)" fill="white"/>
<ellipse rx="2.39087" ry="2.02153" transform="matrix(-1 0 0 1 360.908 220.46)" fill="white"/>
<ellipse rx="2.39087" ry="2.02153" transform="matrix(-1 0 0 1 360.908 244.721)" fill="white"/>
<ellipse rx="2.39087" ry="2.02159" transform="matrix(-1 0 0 1 360.908 268.978)" fill="white"/>
<ellipse rx="2.39087" ry="2.02159" transform="matrix(-1 0 0 1 337.133 2.13121)" fill="white"/>
<ellipse rx="2.39081" ry="2.02159" transform="matrix(-1 0 0 1 337.133 26.3876)" fill="white"/>
<ellipse rx="2.39081" ry="2.02159" transform="matrix(-1 0 0 1 337.133 50.6468)" fill="white"/>
<ellipse rx="2.39081" ry="2.02159" transform="matrix(-1 0 0 1 337.133 74.9086)" fill="white"/>
<ellipse rx="2.39081" ry="2.02165" transform="matrix(-1 0 0 1 337.133 99.1676)" fill="white"/>
<ellipse rx="2.39081" ry="2.02159" transform="matrix(-1 0 0 1 337.133 123.426)" fill="white"/>
<ellipse rx="2.39081" ry="2.0215" transform="matrix(-1 0 0 1 337.133 147.685)" fill="white"/>
<ellipse rx="2.39081" ry="2.02159" transform="matrix(-1 0 0 1 337.133 171.944)" fill="white"/>
<ellipse rx="2.39081" ry="2.02159" transform="matrix(-1 0 0 1 337.133 196.202)" fill="white"/>
<ellipse rx="2.39081" ry="2.02153" transform="matrix(-1 0 0 1 337.133 220.46)" fill="white"/>
<ellipse rx="2.39081" ry="2.02153" transform="matrix(-1 0 0 1 337.133 244.721)" fill="white"/>
<ellipse rx="2.39081" ry="2.02159" transform="matrix(-1 0 0 1 337.133 268.978)" fill="white"/>
<ellipse rx="2.39084" ry="2.02159" transform="matrix(-1 0 0 1 313.128 2.13121)" fill="white"/>
<ellipse rx="2.39084" ry="2.02159" transform="matrix(-1 0 0 1 313.128 26.3876)" fill="white"/>
<ellipse rx="2.39084" ry="2.02159" transform="matrix(-1 0 0 1 313.128 50.6468)" fill="white"/>
<ellipse rx="2.39084" ry="2.02159" transform="matrix(-1 0 0 1 313.128 74.9086)" fill="white"/>
<ellipse rx="2.39084" ry="2.02165" transform="matrix(-1 0 0 1 313.128 99.1676)" fill="white"/>
<ellipse rx="2.39084" ry="2.02159" transform="matrix(-1 0 0 1 313.128 123.426)" fill="white"/>
<ellipse rx="2.39084" ry="2.0215" transform="matrix(-1 0 0 1 313.128 147.685)" fill="white"/>
<ellipse rx="2.39084" ry="2.02159" transform="matrix(-1 0 0 1 313.128 171.944)" fill="white"/>
<ellipse rx="2.39084" ry="2.02159" transform="matrix(-1 0 0 1 313.128 196.202)" fill="white"/>
<ellipse rx="2.39084" ry="2.02153" transform="matrix(-1 0 0 1 313.128 220.46)" fill="white"/>
<ellipse rx="2.39084" ry="2.02153" transform="matrix(-1 0 0 1 313.128 244.721)" fill="white"/>
<ellipse rx="2.39084" ry="2.02159" transform="matrix(-1 0 0 1 313.128 268.978)" fill="white"/>
<ellipse rx="2.3909" ry="2.02159" transform="matrix(-1 0 0 1 289.24 2.13121)" fill="white"/>
<ellipse rx="2.39084" ry="2.02159" transform="matrix(-1 0 0 1 289.24 26.3876)" fill="white"/>
<ellipse rx="2.39084" ry="2.02159" transform="matrix(-1 0 0 1 289.24 50.6468)" fill="white"/>
<ellipse rx="2.39084" ry="2.02159" transform="matrix(-1 0 0 1 289.24 74.9086)" fill="white"/>
<ellipse rx="2.39084" ry="2.02165" transform="matrix(-1 0 0 1 289.24 99.1676)" fill="white"/>
<ellipse rx="2.39084" ry="2.02159" transform="matrix(-1 0 0 1 289.24 123.426)" fill="white"/>
<ellipse rx="2.39084" ry="2.0215" transform="matrix(-1 0 0 1 289.24 147.685)" fill="white"/>
<ellipse rx="2.39084" ry="2.02159" transform="matrix(-1 0 0 1 289.24 171.944)" fill="white"/>
<ellipse rx="2.39084" ry="2.02159" transform="matrix(-1 0 0 1 289.24 196.202)" fill="white"/>
<ellipse rx="2.39084" ry="2.02159" transform="matrix(-1 0 0 1 289.24 220.461)" fill="white"/>
<ellipse rx="2.39084" ry="2.02153" transform="matrix(-1 0 0 1 289.24 244.721)" fill="white"/>
<ellipse rx="2.39084" ry="2.02159" transform="matrix(-1 0 0 1 289.24 268.978)" fill="white"/>
<ellipse rx="2.39087" ry="2.02159" transform="matrix(-1 0 0 1 265.394 2.13121)" fill="white"/>
<ellipse rx="2.39087" ry="2.02159" transform="matrix(-1 0 0 1 265.394 26.3876)" fill="white"/>
<ellipse rx="2.39087" ry="2.02159" transform="matrix(-1 0 0 1 265.394 50.6468)" fill="white"/>
<ellipse rx="2.39087" ry="2.02159" transform="matrix(-1 0 0 1 265.394 74.9086)" fill="white"/>
<ellipse rx="2.39087" ry="2.02162" transform="matrix(-1 0 0 1 265.394 99.1664)" fill="white"/>
<ellipse rx="2.39087" ry="2.02162" transform="matrix(-1 0 0 1 265.394 123.425)" fill="white"/>
<ellipse rx="2.39087" ry="2.02165" transform="matrix(-1 0 0 1 265.394 147.684)" fill="white"/>
<ellipse rx="2.39087" ry="2.02153" transform="matrix(-1 0 0 1 265.394 171.941)" fill="white"/>
<ellipse rx="2.39087" ry="2.02159" transform="matrix(-1 0 0 1 265.394 196.2)" fill="white"/>
<ellipse rx="2.39087" ry="2.02159" transform="matrix(-1 0 0 1 265.394 220.459)" fill="white"/>
<ellipse rx="2.39087" ry="2.02159" transform="matrix(-1 0 0 1 265.394 244.719)" fill="white"/>
<ellipse rx="2.39087" ry="2.02159" transform="matrix(-1 0 0 1 265.394 268.976)" fill="white"/>
<ellipse rx="2.39084" ry="2.02159" transform="matrix(-1 0 0 1 241.386 2.13121)" fill="white"/>
<ellipse rx="2.39084" ry="2.02159" transform="matrix(-1 0 0 1 241.386 26.3876)" fill="white"/>
<ellipse rx="2.39084" ry="2.02159" transform="matrix(-1 0 0 1 241.386 50.6468)" fill="white"/>
<ellipse rx="2.39084" ry="2.02159" transform="matrix(-1 0 0 1 241.386 74.9086)" fill="white"/>
<ellipse rx="2.39084" ry="2.02165" transform="matrix(-1 0 0 1 241.386 99.1676)" fill="white"/>
<ellipse rx="2.39084" ry="2.02159" transform="matrix(-1 0 0 1 241.386 123.426)" fill="white"/>
<ellipse rx="2.39084" ry="2.0215" transform="matrix(-1 0 0 1 241.386 147.685)" fill="white"/>
<ellipse rx="2.39084" ry="2.02159" transform="matrix(-1 0 0 1 241.386 171.944)" fill="white"/>
<ellipse rx="2.39084" ry="2.02159" transform="matrix(-1 0 0 1 241.386 196.202)" fill="white"/>
<ellipse rx="2.39084" ry="2.02153" transform="matrix(-1 0 0 1 241.386 220.46)" fill="white"/>
<ellipse rx="2.39084" ry="2.02153" transform="matrix(-1 0 0 1 241.386 244.721)" fill="white"/>
<ellipse rx="2.39084" ry="2.02159" transform="matrix(-1 0 0 1 241.386 268.978)" fill="white"/>
<ellipse rx="2.39087" ry="2.02159" transform="matrix(-1 0 0 1 217.566 2.13121)" fill="white"/>
<ellipse rx="2.39087" ry="2.02159" transform="matrix(-1 0 0 1 217.566 26.3876)" fill="white"/>
<ellipse rx="2.39087" ry="2.02159" transform="matrix(-1 0 0 1 217.566 50.6468)" fill="white"/>
<ellipse rx="2.39087" ry="2.0215" transform="matrix(-1 0 0 1 217.566 74.9085)" fill="white"/>
<ellipse rx="2.39087" ry="2.02156" transform="matrix(-1 0 0 1 217.566 99.1673)" fill="white"/>
<ellipse rx="2.39087" ry="2.02159" transform="matrix(-1 0 0 1 217.566 123.425)" fill="white"/>
<ellipse rx="2.39087" ry="2.02153" transform="matrix(-1 0 0 1 217.566 147.685)" fill="white"/>
<ellipse rx="2.39087" ry="2.02153" transform="matrix(-1 0 0 1 217.566 171.943)" fill="white"/>
<ellipse rx="2.39087" ry="2.02165" transform="matrix(-1 0 0 1 217.566 196.202)" fill="white"/>
<ellipse rx="2.39087" ry="2.02153" transform="matrix(-1 0 0 1 217.566 220.46)" fill="white"/>
<ellipse rx="2.39087" ry="2.02153" transform="matrix(-1 0 0 1 217.566 244.72)" fill="white"/>
<ellipse rx="2.39087" ry="2.02153" transform="matrix(-1 0 0 1 217.566 268.978)" fill="white"/>
<ellipse rx="2.3909" ry="2.02159" transform="matrix(-1 0 0 1 193.632 2.13121)" fill="white"/>
<ellipse rx="2.39084" ry="2.02159" transform="matrix(-1 0 0 1 193.632 26.3876)" fill="white"/>
<ellipse rx="2.39084" ry="2.02159" transform="matrix(-1 0 0 1 193.632 50.6468)" fill="white"/>
<ellipse rx="2.39084" ry="2.0215" transform="matrix(-1 0 0 1 193.632 74.9092)" fill="white"/>
<ellipse rx="2.39084" ry="2.02165" transform="matrix(-1 0 0 1 193.632 99.1676)" fill="white"/>
<ellipse rx="2.39084" ry="2.02159" transform="matrix(-1 0 0 1 193.632 123.426)" fill="white"/>
<ellipse rx="2.39084" ry="2.0215" transform="matrix(-1 0 0 1 193.632 147.685)" fill="white"/>
<ellipse rx="2.39084" ry="2.02159" transform="matrix(-1 0 0 1 193.632 171.944)" fill="white"/>
<ellipse rx="2.39084" ry="2.02159" transform="matrix(-1 0 0 1 193.632 196.202)" fill="white"/>
<ellipse rx="2.39084" ry="2.02153" transform="matrix(-1 0 0 1 193.632 220.46)" fill="white"/>
<ellipse rx="2.39084" ry="2.02153" transform="matrix(-1 0 0 1 193.632 244.721)" fill="white"/>
<ellipse rx="2.39084" ry="2.02159" transform="matrix(-1 0 0 1 193.632 268.978)" fill="white"/>
<ellipse rx="2.39087" ry="2.02159" transform="matrix(-1 0 0 1 169.644 2.13121)" fill="white"/>
<ellipse rx="2.39087" ry="2.02159" transform="matrix(-1 0 0 1 169.644 26.3876)" fill="white"/>
<ellipse rx="2.39087" ry="2.02159" transform="matrix(-1 0 0 1 169.644 50.6468)" fill="white"/>
<ellipse rx="2.39087" ry="2.02159" transform="matrix(-1 0 0 1 169.644 74.9086)" fill="white"/>
<ellipse rx="2.39087" ry="2.02165" transform="matrix(-1 0 0 1 169.644 99.1676)" fill="white"/>
<ellipse rx="2.39087" ry="2.02159" transform="matrix(-1 0 0 1 169.644 123.426)" fill="white"/>
<ellipse rx="2.39087" ry="2.0215" transform="matrix(-1 0 0 1 169.644 147.685)" fill="white"/>
<ellipse rx="2.39087" ry="2.02159" transform="matrix(-1 0 0 1 169.644 171.944)" fill="white"/>
<ellipse rx="2.39087" ry="2.02159" transform="matrix(-1 0 0 1 169.644 196.202)" fill="white"/>
<ellipse rx="2.39087" ry="2.02153" transform="matrix(-1 0 0 1 169.644 220.46)" fill="white"/>
<ellipse rx="2.39087" ry="2.02153" transform="matrix(-1 0 0 1 169.644 244.721)" fill="white"/>
<ellipse rx="2.39087" ry="2.02159" transform="matrix(-1 0 0 1 169.644 268.978)" fill="white"/>
<ellipse rx="2.39084" ry="2.02159" transform="matrix(-1 0 0 1 145.869 2.13121)" fill="white"/>
<ellipse rx="2.39084" ry="2.02159" transform="matrix(-1 0 0 1 145.869 26.3876)" fill="white"/>
<ellipse rx="2.39084" ry="2.02159" transform="matrix(-1 0 0 1 145.869 50.6468)" fill="white"/>
<ellipse rx="2.39084" ry="2.0215" transform="matrix(-1 0 0 1 145.869 74.9085)" fill="white"/>
<ellipse rx="2.39084" ry="2.02165" transform="matrix(-1 0 0 1 145.869 99.1676)" fill="white"/>
<ellipse rx="2.39084" ry="2.02159" transform="matrix(-1 0 0 1 145.869 123.426)" fill="white"/>
<ellipse rx="2.39084" ry="2.0215" transform="matrix(-1 0 0 1 145.869 147.685)" fill="white"/>
<ellipse rx="2.39084" ry="2.02159" transform="matrix(-1 0 0 1 145.869 171.944)" fill="white"/>
<ellipse rx="2.39084" ry="2.02159" transform="matrix(-1 0 0 1 145.869 196.202)" fill="white"/>
<ellipse rx="2.39084" ry="2.02153" transform="matrix(-1 0 0 1 145.869 220.46)" fill="white"/>
<ellipse rx="2.39084" ry="2.02153" transform="matrix(-1 0 0 1 145.869 244.72)" fill="white"/>
<ellipse rx="2.39084" ry="2.02159" transform="matrix(-1 0 0 1 145.869 268.978)" fill="white"/>
<ellipse rx="2.39087" ry="2.02159" transform="matrix(-1 0 0 1 121.89 2.13121)" fill="white"/>
<ellipse rx="2.39087" ry="2.02159" transform="matrix(-1 0 0 1 121.89 26.3876)" fill="white"/>
<ellipse rx="2.39087" ry="2.02159" transform="matrix(-1 0 0 1 121.89 50.6468)" fill="white"/>
<ellipse rx="2.39087" ry="2.0215" transform="matrix(-1 0 0 1 121.89 74.9092)" fill="white"/>
<ellipse rx="2.39087" ry="2.02165" transform="matrix(-1 0 0 1 121.89 99.1676)" fill="white"/>
<ellipse rx="2.39087" ry="2.02159" transform="matrix(-1 0 0 1 121.89 123.426)" fill="white"/>
<ellipse rx="2.39087" ry="2.0215" transform="matrix(-1 0 0 1 121.89 147.685)" fill="white"/>
<ellipse rx="2.39087" ry="2.02159" transform="matrix(-1 0 0 1 121.89 171.944)" fill="white"/>
<ellipse rx="2.39087" ry="2.02159" transform="matrix(-1 0 0 1 121.89 196.202)" fill="white"/>
<ellipse rx="2.39087" ry="2.02153" transform="matrix(-1 0 0 1 121.89 220.46)" fill="white"/>
<ellipse rx="2.39087" ry="2.02153" transform="matrix(-1 0 0 1 121.89 244.721)" fill="white"/>
<ellipse rx="2.39087" ry="2.02159" transform="matrix(-1 0 0 1 121.89 268.978)" fill="white"/>
<ellipse rx="2.39087" ry="2.02159" transform="matrix(-1 0 0 1 97.9053 2.13121)" fill="white"/>
<ellipse rx="2.39087" ry="2.02159" transform="matrix(-1 0 0 1 97.9055 26.3876)" fill="white"/>
<ellipse rx="2.39087" ry="2.02159" transform="matrix(-1 0 0 1 97.9055 50.6468)" fill="white"/>
<ellipse rx="2.39087" ry="2.02159" transform="matrix(-1 0 0 1 97.9055 74.9086)" fill="white"/>
<ellipse rx="2.39087" ry="2.02165" transform="matrix(-1 0 0 1 97.9055 99.1676)" fill="white"/>
<ellipse rx="2.39087" ry="2.02159" transform="matrix(-1 0 0 1 97.9055 123.426)" fill="white"/>
<ellipse rx="2.39087" ry="2.0215" transform="matrix(-1 0 0 1 97.9055 147.685)" fill="white"/>
<ellipse rx="2.39087" ry="2.02159" transform="matrix(-1 0 0 1 97.9055 171.944)" fill="white"/>
<ellipse rx="2.39087" ry="2.02159" transform="matrix(-1 0 0 1 97.9055 196.202)" fill="white"/>
<ellipse rx="2.39087" ry="2.02153" transform="matrix(-1 0 0 1 97.9055 220.46)" fill="white"/>
<ellipse rx="2.39087" ry="2.02153" transform="matrix(-1 0 0 1 97.9055 244.721)" fill="white"/>
<ellipse rx="2.39087" ry="2.02159" transform="matrix(-1 0 0 1 97.9055 268.978)" fill="white"/>
<ellipse rx="2.39087" ry="2.02159" transform="matrix(-1 0 0 1 74.1299 2.13121)" fill="white"/>
<ellipse rx="2.39084" ry="2.02159" transform="matrix(-1 0 0 1 74.1299 26.3876)" fill="white"/>
<ellipse rx="2.39084" ry="2.02159" transform="matrix(-1 0 0 1 74.1299 50.6468)" fill="white"/>
<ellipse rx="2.39084" ry="2.0215" transform="matrix(-1 0 0 1 74.1299 74.9085)" fill="white"/>
<ellipse rx="2.39084" ry="2.02165" transform="matrix(-1 0 0 1 74.1299 99.1676)" fill="white"/>
<ellipse rx="2.39084" ry="2.02159" transform="matrix(-1 0 0 1 74.1299 123.426)" fill="white"/>
<ellipse rx="2.39084" ry="2.0215" transform="matrix(-1 0 0 1 74.1299 147.685)" fill="white"/>
<ellipse rx="2.39084" ry="2.02159" transform="matrix(-1 0 0 1 74.1299 171.944)" fill="white"/>
<ellipse rx="2.39084" ry="2.02159" transform="matrix(-1 0 0 1 74.1299 196.202)" fill="white"/>
<ellipse rx="2.39084" ry="2.02153" transform="matrix(-1 0 0 1 74.1299 220.46)" fill="white"/>
<ellipse rx="2.39084" ry="2.02153" transform="matrix(-1 0 0 1 74.1299 244.721)" fill="white"/>
<ellipse rx="2.39084" ry="2.02159" transform="matrix(-1 0 0 1 74.1299 268.978)" fill="white"/>
<ellipse rx="2.39084" ry="2.02159" transform="matrix(-1 0 0 1 50.1512 2.13121)" fill="white"/>
<ellipse rx="2.39084" ry="2.02159" transform="matrix(-1 0 0 1 50.1512 26.3876)" fill="white"/>
<ellipse rx="2.39084" ry="2.02159" transform="matrix(-1 0 0 1 50.1512 50.6468)" fill="white"/>
<ellipse rx="2.39084" ry="2.0215" transform="matrix(-1 0 0 1 50.1512 74.9092)" fill="white"/>
<ellipse rx="2.39084" ry="2.02165" transform="matrix(-1 0 0 1 50.1512 99.1676)" fill="white"/>
<ellipse rx="2.39084" ry="2.02159" transform="matrix(-1 0 0 1 50.1512 123.426)" fill="white"/>
<ellipse rx="2.39084" ry="2.0215" transform="matrix(-1 0 0 1 50.1512 147.685)" fill="white"/>
<ellipse rx="2.39084" ry="2.02159" transform="matrix(-1 0 0 1 50.1512 171.944)" fill="white"/>
<ellipse rx="2.39084" ry="2.02159" transform="matrix(-1 0 0 1 50.1512 196.202)" fill="white"/>
<ellipse rx="2.39084" ry="2.02153" transform="matrix(-1 0 0 1 50.1512 220.46)" fill="white"/>
<ellipse rx="2.39084" ry="2.02153" transform="matrix(-1 0 0 1 50.1512 244.721)" fill="white"/>
<ellipse rx="2.39084" ry="2.02159" transform="matrix(-1 0 0 1 50.1512 268.978)" fill="white"/>
<ellipse rx="2.39084" ry="2.02159" transform="matrix(-1 0 0 1 26.2107 2.13121)" fill="white"/>
<ellipse rx="2.39084" ry="2.02159" transform="matrix(-1 0 0 1 26.2107 26.3876)" fill="white"/>
<ellipse rx="2.39084" ry="2.02159" transform="matrix(-1 0 0 1 26.2107 50.6468)" fill="white"/>
<ellipse rx="2.39084" ry="2.02159" transform="matrix(-1 0 0 1 26.2107 74.9086)" fill="white"/>
<ellipse rx="2.39084" ry="2.02162" transform="matrix(-1 0 0 1 26.2107 99.1664)" fill="white"/>
<ellipse rx="2.39084" ry="2.02162" transform="matrix(-1 0 0 1 26.2107 123.425)" fill="white"/>
<ellipse rx="2.39084" ry="2.02165" transform="matrix(-1 0 0 1 26.2107 147.684)" fill="white"/>
<ellipse rx="2.39084" ry="2.02153" transform="matrix(-1 0 0 1 26.2107 171.942)" fill="white"/>
<ellipse rx="2.39084" ry="2.02159" transform="matrix(-1 0 0 1 26.2107 196.2)" fill="white"/>
<ellipse rx="2.39084" ry="2.02159" transform="matrix(-1 0 0 1 26.2107 220.459)" fill="white"/>
<ellipse rx="2.39084" ry="2.02159" transform="matrix(-1 0 0 1 26.2107 244.719)" fill="white"/>
<ellipse rx="2.39084" ry="2.02159" transform="matrix(-1 0 0 1 26.2107 268.976)" fill="white"/>
<ellipse rx="2.39084" ry="2.02159" transform="matrix(-1 0 0 1 2.39114 2.13121)" fill="white"/>
<ellipse rx="2.39084" ry="2.02159" transform="matrix(-1 0 0 1 2.39114 26.3876)" fill="white"/>
<ellipse rx="2.39084" ry="2.02159" transform="matrix(-1 0 0 1 2.39114 50.6468)" fill="white"/>
<ellipse rx="2.39084" ry="2.0215" transform="matrix(-1 0 0 1 2.39114 74.9085)" fill="white"/>
<ellipse rx="2.39084" ry="2.02165" transform="matrix(-1 0 0 1 2.39114 99.1676)" fill="white"/>
<ellipse rx="2.39084" ry="2.02159" transform="matrix(-1 0 0 1 2.39114 123.426)" fill="white"/>
<ellipse rx="2.39084" ry="2.0215" transform="matrix(-1 0 0 1 2.39114 147.685)" fill="white"/>
<ellipse rx="2.39084" ry="2.02159" transform="matrix(-1 0 0 1 2.39114 171.944)" fill="white"/>
<ellipse rx="2.39084" ry="2.02159" transform="matrix(-1 0 0 1 2.39114 196.202)" fill="white"/>
<ellipse rx="2.39084" ry="2.02153" transform="matrix(-1 0 0 1 2.39114 220.46)" fill="white"/>
<ellipse rx="2.39084" ry="2.02153" transform="matrix(-1 0 0 1 2.39114 244.721)" fill="white"/>
<ellipse rx="2.39084" ry="2.02159" transform="matrix(-1 0 0 1 2.39114 268.978)" fill="white"/>
</svg>
