<svg width="104" height="37" viewBox="0 0 104 37" fill="none" xmlns="http://www.w3.org/2000/svg">
<path d="M47.8928 24.5613V11.6497H52.0614C53.0698 11.6497 53.8937 11.8157 54.5331 12.1477C55.1725 12.4797 55.646 12.9347 55.9534 13.5126C56.2608 14.0906 56.4145 14.73 56.4145 15.4309C56.4145 16.2425 56.1932 16.9742 55.7505 17.6259C55.3201 18.2776 54.6438 18.7388 53.7215 19.0093L56.5436 24.5613H54.7175L52.0983 19.2306H51.9877H49.4422V24.5613H47.8928ZM49.4422 18.0132H51.9508C52.9468 18.0132 53.6723 17.7735 54.1273 17.2939C54.5823 16.8143 54.8098 16.1995 54.8098 15.4494C54.8098 14.687 54.5823 14.0844 54.1273 13.6417C53.6846 13.1868 52.953 12.9593 51.9323 12.9593H49.4422V18.0132Z" fill="#35208C"/>
<path d="M62.2893 24.7826C61.4162 24.7826 60.6415 24.5859 59.9652 24.1924C59.2889 23.7866 58.754 23.2271 58.3605 22.5139C57.9793 21.8007 57.7887 20.9583 57.7887 19.9869C57.7887 19.0277 57.9793 18.1916 58.3605 17.4783C58.7417 16.7528 59.2704 16.1933 59.9468 15.7998C60.6354 15.394 61.4285 15.1911 62.3262 15.1911C63.2116 15.1911 63.974 15.394 64.6134 15.7998C65.2651 16.1933 65.7631 16.7159 66.1074 17.3677C66.4518 18.0194 66.6239 18.7203 66.6239 19.4704C66.6239 19.6057 66.6178 19.7409 66.6055 19.8762C66.6055 20.0115 66.6055 20.1652 66.6055 20.3373H59.3196C59.3565 21.0383 59.5164 21.6224 59.7992 22.0896C60.0943 22.5446 60.4571 22.8889 60.8875 23.1226C61.3301 23.3562 61.7974 23.473 62.2893 23.473C62.9287 23.473 63.4636 23.3255 63.894 23.0303C64.3244 22.7352 64.638 22.3356 64.8347 21.8314H66.3657C66.1197 22.6799 65.6463 23.3869 64.9454 23.9526C64.2568 24.506 63.3714 24.7826 62.2893 24.7826ZM62.2893 16.5007C61.5515 16.5007 60.8936 16.7282 60.3157 17.1832C59.75 17.6259 59.4241 18.2776 59.3381 19.1384H65.093C65.0561 18.3145 64.7732 17.6689 64.2445 17.2017C63.7157 16.7344 63.064 16.5007 62.2893 16.5007Z" fill="#35208C"/>
<path d="M68.6775 24.5613V15.4125H70.0794L70.1716 17.0541C70.4667 16.4761 70.8909 16.0212 71.4443 15.6892C71.9977 15.3571 72.6248 15.1911 73.3257 15.1911C74.4078 15.1911 75.2686 15.5231 75.908 16.1872C76.5598 16.8389 76.8856 17.8472 76.8856 19.2122V24.5613H75.3362V19.3782C75.3362 17.4722 74.5492 16.5192 72.9753 16.5192C72.1883 16.5192 71.5304 16.8082 71.0016 17.3861C70.4852 17.9518 70.2269 18.7634 70.2269 19.8209V24.5613H68.6775Z" fill="#35208C"/>
<path d="M82.8483 24.5613C82.0121 24.5613 81.3543 24.3584 80.8747 23.9526C80.3951 23.5468 80.1553 22.8151 80.1553 21.7576V16.7221H78.569V15.4125H80.1553L80.3582 13.2175H81.7047V15.4125H84.3977V16.7221H81.7047V21.7576C81.7047 22.3356 81.8215 22.7291 82.0552 22.9381C82.2888 23.1349 82.7008 23.2332 83.291 23.2332H84.2502V24.5613H82.8483Z" fill="#35208C"/>
<path d="M89.4096 24.7826C88.6472 24.7826 88.0139 24.6535 87.5098 24.3953C87.0056 24.1371 86.6306 23.7927 86.3846 23.3624C86.1387 22.932 86.0157 22.4647 86.0157 21.9605C86.0157 21.026 86.3723 20.3066 87.0855 19.8024C87.7987 19.2983 88.7702 19.0462 89.9999 19.0462H92.4715V18.9355C92.4715 18.1362 92.2625 17.5337 91.8444 17.1279C91.4263 16.7098 90.8668 16.5007 90.1659 16.5007C89.5633 16.5007 89.0407 16.6545 88.598 16.9619C88.1677 17.257 87.8971 17.6935 87.7865 18.2715H86.2002C86.2616 17.6075 86.483 17.048 86.8642 16.593C87.2577 16.138 87.7434 15.7937 88.3214 15.56C88.8993 15.3141 89.5141 15.1911 90.1659 15.1911C91.4447 15.1911 92.4039 15.5354 93.0433 16.2241C93.6951 16.9004 94.0209 17.8042 94.0209 18.9355V24.5613H92.6375L92.5453 22.9197C92.2871 23.4361 91.9059 23.8788 91.4017 24.2477C90.9098 24.6043 90.2458 24.7826 89.4096 24.7826ZM89.6494 23.473C90.2397 23.473 90.7438 23.3193 91.1619 23.0119C91.5923 22.7045 91.9182 22.3048 92.1395 21.813C92.3609 21.3211 92.4715 20.8046 92.4715 20.2636V20.2451H90.129C89.219 20.2451 88.5734 20.405 88.1922 20.7247C87.8233 21.0321 87.6389 21.4195 87.6389 21.8867C87.6389 22.3663 87.811 22.7537 88.1554 23.0488C88.512 23.3316 89.01 23.473 89.6494 23.473Z" fill="#35208C"/>
<path d="M99.3888 24.7826C98.6264 24.7826 97.9931 24.6535 97.4889 24.3953C96.9847 24.1371 96.6097 23.7927 96.3637 23.3624C96.1178 22.932 95.9948 22.4647 95.9948 21.9605C95.9948 21.026 96.3515 20.3066 97.0647 19.8024C97.7779 19.2983 98.7493 19.0462 99.979 19.0462H102.451V18.9355C102.451 18.1362 102.242 17.5337 101.824 17.1279C101.405 16.7098 100.846 16.5007 100.145 16.5007C99.5425 16.5007 99.0199 16.6545 98.5772 16.9619C98.1468 17.257 97.8763 17.6935 97.7656 18.2715H96.1793C96.2408 17.6075 96.4621 17.048 96.8433 16.593C97.2368 16.138 97.7225 15.7937 98.3005 15.56C98.8784 15.3141 99.4933 15.1911 100.145 15.1911C101.424 15.1911 102.383 15.5354 103.022 16.2241C103.674 16.9004 104 17.8042 104 18.9355V24.5613H102.617L102.524 22.9197C102.266 23.4361 101.885 23.8788 101.381 24.2477C100.889 24.6043 100.225 24.7826 99.3888 24.7826ZM99.6285 23.473C100.219 23.473 100.723 23.3193 101.141 23.0119C101.571 22.7045 101.897 22.3048 102.119 21.813C102.34 21.3211 102.451 20.8046 102.451 20.2636V20.2451H100.108C99.1982 20.2451 98.5526 20.405 98.1714 20.7247C97.8025 21.0321 97.618 21.4195 97.618 21.8867C97.618 22.3663 97.7902 22.7537 98.1345 23.0488C98.4911 23.3316 98.9891 23.473 99.6285 23.473Z" fill="#35208C"/>
<path fill-rule="evenodd" clip-rule="evenodd" d="M18.4452 34.0033C27.0377 34.0033 34.0033 27.0377 34.0033 18.4452C34.0033 9.85268 27.0377 2.88707 18.4452 2.88707C9.85268 2.88707 2.88707 9.85268 2.88707 18.4452C2.88707 27.0377 9.85268 34.0033 18.4452 34.0033ZM18.4452 36.8904C28.6322 36.8904 36.8904 28.6322 36.8904 18.4452C36.8904 8.25818 28.6322 0 18.4452 0C8.25818 0 0 8.25818 0 18.4452C0 28.6322 8.25818 36.8904 18.4452 36.8904Z" fill="#35208C"/>
<path fill-rule="evenodd" clip-rule="evenodd" d="M26.916 9.50448C27.6298 9.85946 27.9207 10.7259 27.5657 11.4398L26.3414 10.8309C27.5657 11.4398 27.5656 11.44 27.5655 11.4403L27.5599 11.4515L27.5456 11.4799C27.5333 11.5043 27.5155 11.5394 27.4926 11.5845C27.4466 11.6745 27.3798 11.8042 27.2943 11.9669C27.1235 12.2919 26.8775 12.7496 26.5744 13.2856C25.9713 14.3518 25.1279 15.7529 24.1886 17.0398C23.2818 18.2823 22.1645 19.591 20.9851 20.297C20.3834 20.6572 19.6016 20.9599 18.7372 20.837C17.8146 20.7058 17.1131 20.1383 16.6269 19.3903C16.5732 19.3078 16.5302 19.2548 16.4992 19.2218C16.4637 19.2366 16.4134 19.2612 16.3469 19.3021C15.8265 19.6209 15.1294 20.4169 14.3761 21.5629C13.6579 22.6553 13.0043 23.8829 12.5247 24.8526C12.2867 25.3342 12.0949 25.745 11.9633 26.0342C11.8976 26.1786 11.847 26.2923 11.8133 26.3689C11.7965 26.4072 11.7838 26.4361 11.7757 26.455L11.7668 26.4756L11.7647 26.4803C11.4513 27.2132 10.603 27.5537 9.87004 27.2404C9.13692 26.9272 8.79663 26.0789 9.10991 25.3458L10.4373 25.9131C9.10991 25.3458 9.11004 25.3455 9.11016 25.3452L9.11151 25.342L9.11488 25.3342L9.12678 25.3067C9.13701 25.2831 9.15177 25.2492 9.17086 25.2058C9.20903 25.1191 9.26453 24.9944 9.33561 24.8382C9.47769 24.526 9.6827 24.0867 9.9368 23.5729C10.4417 22.5519 11.1543 21.2079 11.9637 19.9769C12.7378 18.7993 13.7294 17.5199 14.8385 16.8404C15.4166 16.4861 16.1862 16.1973 17.0463 16.3596C17.9316 16.5267 18.5869 17.1082 19.0476 17.817C19.1008 17.8988 19.1413 17.9457 19.1675 17.9713C19.219 17.9596 19.3268 17.9249 19.5023 17.8198C20.1465 17.4342 20.9769 16.5431 21.8566 15.3378C22.7039 14.1769 23.4857 12.8821 24.0614 11.8643C24.3475 11.3583 24.5792 10.9271 24.7387 10.6236C24.8184 10.472 24.8799 10.3526 24.921 10.2721C24.9416 10.2319 24.957 10.2014 24.967 10.1814L24.978 10.1596L24.9804 10.1548L24.9807 10.1542C24.9807 10.1542 24.9806 10.1543 24.9807 10.1542C25.3357 9.44058 26.2022 9.14953 26.916 9.50448ZM19.2028 17.9987C19.2028 17.9993 19.1984 17.9974 19.1899 17.9909C19.1987 17.9948 19.2029 17.998 19.2028 17.9987ZM16.4523 19.1785C16.4459 19.1752 16.4427 19.1729 16.4428 19.1726C16.4428 19.1722 16.4461 19.1738 16.4523 19.1785Z" fill="#35208C"/>
</svg>
