<svg width="176" height="54" viewBox="0 0 176 54" fill="none" xmlns="http://www.w3.org/2000/svg">
<path d="M70 39.5787V15H77.8755C79.7805 15 81.337 15.316 82.5451 15.948C83.7531 16.5801 84.6475 17.4462 85.2283 18.5463C85.8091 19.6465 86.0995 20.8638 86.0995 22.198C86.0995 23.743 85.6813 25.1358 84.845 26.3764C84.0319 27.617 82.7541 28.4949 81.0118 29.0098L86.3434 39.5787H82.8935L77.9452 29.4312H77.7361H72.9272V39.5787H70ZM72.9272 27.1138H77.6664C79.5482 27.1138 80.9188 26.6573 81.7784 25.7444C82.638 24.8315 83.0678 23.661 83.0678 22.2331C83.0678 20.7818 82.638 19.6348 81.7784 18.7921C80.9421 17.926 79.5598 17.493 77.6316 17.493H72.9272V27.1138Z" fill="white"/>
<path d="M97.1984 40C95.5489 40 94.0853 39.6255 92.8076 38.8764C91.5299 38.1039 90.5193 37.0389 89.7759 35.6812C89.0557 34.3235 88.6956 32.72 88.6956 30.8708C88.6956 29.0449 89.0557 27.4532 89.7759 26.0955C90.4961 24.7144 91.495 23.6493 92.7728 22.9003C94.0737 22.1278 95.5722 21.7416 97.2681 21.7416C98.9407 21.7416 100.381 22.1278 101.589 22.9003C102.82 23.6493 103.761 24.6442 104.412 25.8848C105.062 27.1255 105.388 28.4597 105.388 29.8876C105.388 30.1451 105.376 30.4026 105.353 30.6601C105.353 30.9176 105.353 31.2102 105.353 31.5379H91.5879C91.6576 32.8722 91.9597 33.9841 92.494 34.8736C93.0515 35.7397 93.7369 36.3951 94.55 36.8399C95.3863 37.2846 96.2691 37.507 97.1984 37.507C98.4064 37.507 99.417 37.2261 100.23 36.6643C101.043 36.1025 101.636 35.3418 102.007 34.382H104.9C104.435 35.9972 103.541 37.3432 102.216 38.4199C100.915 39.4733 99.2428 40 97.1984 40ZM97.1984 24.2346C95.8045 24.2346 94.5616 24.6676 93.4697 25.5337C92.4011 26.3764 91.7854 27.617 91.6228 29.2556H102.495C102.425 27.6873 101.891 26.4583 100.892 25.5688C99.8932 24.6793 98.662 24.2346 97.1984 24.2346Z" fill="white"/>
<path d="M109.267 39.5787V22.1629H111.916L112.09 25.2879C112.647 24.1877 113.449 23.3216 114.494 22.6896C115.54 22.0576 116.725 21.7416 118.049 21.7416C120.093 21.7416 121.719 22.3736 122.927 23.6376C124.159 24.8783 124.774 26.7978 124.774 29.3961V39.5787H121.847V29.7121C121.847 26.0838 120.36 24.2697 117.387 24.2697C115.9 24.2697 114.657 24.8198 113.658 25.9199C112.682 26.9967 112.194 28.5417 112.194 30.5548V39.5787H109.267Z" fill="white"/>
<path d="M136.039 39.5787C134.46 39.5787 133.217 39.1924 132.311 38.4199C131.405 37.6475 130.952 36.2547 130.952 34.2416V24.6559H127.955V22.1629H130.952L131.335 17.9846H133.879V22.1629H138.966V24.6559H133.879V34.2416C133.879 35.3418 134.099 36.0908 134.541 36.4888C134.982 36.8633 135.761 37.0506 136.876 37.0506H138.688V39.5787H136.039Z" fill="white"/>
<path d="M148.435 40C146.995 40 145.798 39.7542 144.846 39.2626C143.893 38.7711 143.185 38.1156 142.72 37.2963C142.256 36.4771 142.023 35.5875 142.023 34.6278C142.023 32.8488 142.697 31.4794 144.044 30.5197C145.392 29.5599 147.227 29.0801 149.55 29.0801H154.22V28.8694C154.22 27.3478 153.825 26.2008 153.035 25.4284C152.245 24.6325 151.188 24.2346 149.864 24.2346C148.726 24.2346 147.738 24.5272 146.902 25.1124C146.089 25.6742 145.578 26.5051 145.369 27.6053H142.372C142.488 26.3413 142.906 25.2762 143.626 24.4101C144.37 23.544 145.287 22.8886 146.379 22.4438C147.471 21.9757 148.633 21.7416 149.864 21.7416C152.28 21.7416 154.092 22.397 155.3 23.7079C156.531 24.9953 157.147 26.7158 157.147 28.8694V39.5787H154.533L154.359 36.4537C153.871 37.4368 153.151 38.2795 152.199 38.9817C151.269 39.6606 150.015 40 148.435 40ZM148.888 37.507C150.003 37.507 150.956 37.2144 151.746 36.6292C152.559 36.044 153.174 35.2832 153.593 34.3469C154.011 33.4106 154.22 32.4274 154.22 31.3975V31.3624H149.794C148.075 31.3624 146.855 31.6667 146.135 32.2753C145.438 32.8605 145.09 33.5978 145.09 34.4874C145.09 35.4003 145.415 36.1376 146.066 36.6994C146.739 37.2378 147.68 37.507 148.888 37.507Z" fill="white"/>
<path d="M167.288 40C165.848 40 164.651 39.7542 163.699 39.2626C162.746 38.7711 162.038 38.1156 161.573 37.2963C161.109 36.4771 160.876 35.5875 160.876 34.6278C160.876 32.8488 161.55 31.4794 162.897 30.5197C164.245 29.5599 166.08 29.0801 168.403 29.0801H173.073V28.8694C173.073 27.3478 172.678 26.2008 171.888 25.4284C171.098 24.6325 170.041 24.2346 168.717 24.2346C167.579 24.2346 166.591 24.5272 165.755 25.1124C164.942 25.6742 164.431 26.5051 164.222 27.6053H161.225C161.341 26.3413 161.759 25.2762 162.479 24.4101C163.223 23.544 164.14 22.8886 165.232 22.4438C166.324 21.9757 167.486 21.7416 168.717 21.7416C171.133 21.7416 172.945 22.397 174.153 23.7079C175.384 24.9953 176 26.7158 176 28.8694V39.5787H173.386L173.212 36.4537C172.724 37.4368 172.004 38.2795 171.052 38.9817C170.122 39.6606 168.868 40 167.288 40ZM167.741 37.507C168.856 37.507 169.809 37.2144 170.599 36.6292C171.412 36.044 172.027 35.2832 172.446 34.3469C172.864 33.4106 173.073 32.4274 173.073 31.3975V31.3624H168.647C166.928 31.3624 165.708 31.6667 164.988 32.2753C164.291 32.8605 163.943 33.5978 163.943 34.4874C163.943 35.4003 164.268 36.1376 164.919 36.6994C165.592 37.2378 166.533 37.507 167.741 37.507Z" fill="white"/>
<path fill-rule="evenodd" clip-rule="evenodd" d="M27 50.5161C39.9876 50.5161 50.5161 39.9876 50.5161 27C50.5161 14.0124 39.9876 3.48387 27 3.48387C14.0124 3.48387 3.48387 14.0124 3.48387 27C3.48387 39.9876 14.0124 50.5161 27 50.5161ZM27 54C41.9117 54 54 41.9117 54 27C54 12.0883 41.9117 0 27 0C12.0883 0 0 12.0883 0 27C0 41.9117 12.0883 54 27 54Z" fill="white"/>
<path fill-rule="evenodd" clip-rule="evenodd" d="M39.0574 14.1853C39.8974 14.6202 40.2396 15.6816 39.822 16.5561L38.3011 15.7687C39.822 16.5561 39.8221 16.5557 39.822 16.5561L39.8195 16.5612L39.814 16.5727L39.794 16.6141C39.7768 16.6497 39.7517 16.7013 39.7192 16.7676C39.6543 16.9002 39.5595 17.0916 39.4383 17.3318C39.1958 17.812 38.8466 18.4888 38.416 19.2813C37.5588 20.8593 36.3627 22.9275 35.0336 24.8235C33.7428 26.665 32.1839 28.5552 30.5678 29.5625C29.7455 30.0749 28.7152 30.4809 27.5961 30.3152C26.4085 30.1394 25.4894 29.3789 24.8366 28.3331C24.6872 28.0939 24.5696 27.9767 24.5032 27.9238C24.4711 27.8982 24.4508 27.8875 24.4428 27.8836C24.4385 27.8816 24.4361 27.8808 24.4354 27.8805L24.4343 27.8803L24.4323 27.8801C24.4304 27.8799 24.4263 27.8798 24.4198 27.8801C24.407 27.8807 24.3816 27.8834 24.342 27.8941C24.2592 27.9162 24.1273 27.9694 23.9445 28.086C23.128 28.6069 22.0961 29.8529 21.0183 31.5599C19.9818 33.2013 19.0415 35.0408 18.3539 36.4885C18.0121 37.2082 17.7368 37.8225 17.5476 38.2551C17.4531 38.4713 17.3803 38.6417 17.3316 38.7568C17.3073 38.8144 17.289 38.8581 17.2771 38.8867L17.264 38.9182L17.2607 38.9262C17.2607 38.9263 17.2608 38.9261 17.2607 38.9262C16.892 39.824 15.8939 40.2411 15.0314 39.8573C14.1689 39.4735 13.7685 38.4344 14.1371 37.5363L15.6989 38.2312C14.1371 37.5363 14.1369 37.5367 14.1371 37.5363L14.1392 37.5312L14.1438 37.52L14.1604 37.48C14.1748 37.4455 14.1956 37.3958 14.2225 37.332C14.2764 37.2045 14.355 37.0206 14.4558 36.79C14.6573 36.3292 14.9483 35.6801 15.3089 34.9208C16.0263 33.4102 17.0361 31.4283 18.1798 29.617C19.2821 27.8712 20.6606 26.0331 22.1696 25.0704C22.952 24.5712 23.9577 24.1874 25.0647 24.405C26.2012 24.6283 27.0619 25.4079 27.6848 26.4057C27.8241 26.6289 27.933 26.7299 27.9896 26.7719C28.0383 26.8081 28.0617 26.8118 28.0743 26.8137C28.1171 26.82 28.3439 26.8265 28.823 26.5279C29.8096 25.913 31.0308 24.5344 32.2898 22.7385C33.5106 20.9969 34.6342 19.059 35.4592 17.5402C35.8698 16.7844 36.2023 16.1401 36.4313 15.6864C36.5458 15.4596 36.6343 15.2808 36.6935 15.1599C36.7231 15.0995 36.7454 15.0536 36.7601 15.0234L36.7761 14.99L36.7803 14.9813C36.7804 14.9812 36.7803 14.9814 36.7803 14.9813C37.1981 14.107 38.2176 13.7505 39.0574 14.1853Z" fill="white"/>
</svg>
