<svg width="35" height="36" viewBox="0 0 35 36" fill="none" xmlns="http://www.w3.org/2000/svg">
<path d="M27.9127 19.3708C27.9711 18.9333 28.0002 18.4813 28.0002 18C28.0002 17.5333 27.9711 17.0667 27.8982 16.6292L30.8586 14.325C31.1211 14.1208 31.194 13.7271 31.0336 13.4354L28.2336 8.59375C28.0586 8.27292 27.694 8.17083 27.3732 8.27292L23.8877 9.67292C23.1586 9.11875 22.3857 8.65208 21.5252 8.30208L21.0002 4.59792C20.9419 4.24792 20.6502 4 20.3002 4H14.7002C14.3502 4 14.0732 4.24792 14.0148 4.59792L13.4898 8.30208C12.6294 8.65208 11.8419 9.13333 11.1273 9.67292L7.64191 8.27292C7.32107 8.15625 6.95649 8.27292 6.78149 8.59375L3.99607 13.4354C3.82107 13.7417 3.87941 14.1208 4.17107 14.325L7.13149 16.6292C7.05857 17.0667 7.00024 17.5479 7.00024 18C7.00024 18.4521 7.02941 18.9333 7.10232 19.3708L4.14191 21.675C3.87941 21.8792 3.80649 22.2729 3.96691 22.5646L6.76691 27.4063C6.94191 27.7271 7.30649 27.8292 7.62733 27.7271L11.1127 26.3271C11.8419 26.8813 12.6148 27.3479 13.4752 27.6979L14.0002 31.4021C14.0732 31.7521 14.3502 32 14.7002 32H20.3002C20.6502 32 20.9419 31.7521 20.9857 31.4021L21.5107 27.6979C22.3711 27.3479 23.1586 26.8813 23.8732 26.3271L27.3586 27.7271C27.6794 27.8438 28.044 27.7271 28.219 27.4063L31.019 22.5646C31.194 22.2438 31.1211 21.8792 30.844 21.675L27.9127 19.3708ZM17.5002 23.25C14.6127 23.25 12.2502 20.8875 12.2502 18C12.2502 15.1125 14.6127 12.75 17.5002 12.75C20.3877 12.75 22.7502 15.1125 22.7502 18C22.7502 20.8875 20.3877 23.25 17.5002 23.25Z" fill="#35208C"/>
</svg>
