<svg width="22" height="24" viewBox="0 0 22 24" fill="none" xmlns="http://www.w3.org/2000/svg">
<path d="M19.3298 13.0967C19.3765 12.7467 19.3998 12.3851 19.3998 12.0001C19.3998 11.6267 19.3765 11.2534 19.3181 10.9034L21.6865 9.06005C21.8965 8.89672 21.9548 8.58172 21.8265 8.34838L19.5865 4.47505C19.4465 4.21838 19.1548 4.13672 18.8981 4.21838L16.1098 5.33838C15.5265 4.89505 14.9081 4.52172 14.2198 4.24172L13.7998 1.27838C13.7531 0.998382 13.5198 0.800049 13.2398 0.800049H8.7598C8.4798 0.800049 8.25814 0.998382 8.21147 1.27838L7.79147 4.24172C7.10314 4.52172 6.47314 4.90672 5.90147 5.33838L3.11314 4.21838C2.85647 4.12505 2.5648 4.21838 2.4248 4.47505L0.196469 8.34838C0.0564691 8.59338 0.103136 8.89672 0.336469 9.06005L2.7048 10.9034C2.64647 11.2534 2.5998 11.6384 2.5998 12.0001C2.5998 12.3617 2.62314 12.7467 2.68147 13.0967L0.313136 14.9401C0.103136 15.1034 0.0448025 15.4184 0.173136 15.6517L2.41314 19.5251C2.55314 19.7817 2.8448 19.8634 3.10147 19.7817L5.8898 18.6617C6.47314 19.1051 7.09147 19.4784 7.7798 19.7584L8.1998 22.7217C8.25814 23.0017 8.4798 23.2001 8.7598 23.2001H13.2398C13.5198 23.2001 13.7531 23.0017 13.7881 22.7217L14.2081 19.7584C14.8965 19.4784 15.5265 19.1051 16.0981 18.6617L18.8865 19.7817C19.1431 19.8751 19.4348 19.7817 19.5748 19.5251L21.8148 15.6517C21.9548 15.3951 21.8965 15.1034 21.6748 14.9401L19.3298 13.0967ZM10.9998 16.2001C8.6898 16.2001 6.7998 14.3101 6.7998 12.0001C6.7998 9.69005 8.6898 7.80005 10.9998 7.80005C13.3098 7.80005 15.1998 9.69005 15.1998 12.0001C15.1998 14.3101 13.3098 16.2001 10.9998 16.2001Z" fill="#35208C"/>
</svg>
