<svg width="12" height="10" viewBox="0 0 12 10" fill="none" xmlns="http://www.w3.org/2000/svg">
<path d="M11.4773 1.38258C11.0598 1.56114 10.6113 1.68179 10.1398 1.73632C10.6263 1.45535 10.9902 1.01314 11.1638 0.492191C10.7067 0.754234 10.2064 0.938685 9.68477 1.03752C9.33396 0.675994 8.8693 0.436367 8.36293 0.355845C7.85656 0.275323 7.33682 0.358411 6.88439 0.59221C6.43196 0.826008 6.07216 1.19744 5.86085 1.64883C5.64953 2.10022 5.59854 2.60632 5.71577 3.08855C4.78961 3.04367 3.88358 2.81132 3.05648 2.4066C2.22938 2.00187 1.49969 1.43381 0.914768 0.739279C0.714768 1.07227 0.599768 1.45835 0.599768 1.86952C0.599544 2.23966 0.693984 2.60414 0.874707 2.93061C1.05543 3.25708 1.31685 3.53545 1.63577 3.74102C1.26591 3.72966 0.904204 3.6332 0.580768 3.45967V3.48862C0.58073 4.00777 0.766784 4.51094 1.10736 4.91276C1.44793 5.31457 1.92205 5.59029 2.44927 5.69311C2.10616 5.78274 1.74644 5.79594 1.39727 5.73172C1.54602 6.17842 1.83577 6.56904 2.22595 6.84889C2.61614 7.12875 3.08723 7.28383 3.57327 7.29243C2.74818 7.91759 1.72921 8.2567 0.680268 8.25521C0.494458 8.25526 0.308806 8.24479 0.124268 8.22384C1.18901 8.8846 2.42844 9.23527 3.69427 9.23391C7.97927 9.23391 10.3218 5.80845 10.3218 2.8376C10.3218 2.74108 10.3193 2.6436 10.3148 2.54708C10.7704 2.22904 11.1637 1.8352 11.4763 1.38403L11.4773 1.38258Z" fill="black"/>
</svg>
