<svg width="24" height="24" viewBox="0 0 24 24" fill="none" xmlns="http://www.w3.org/2000/svg">
<mask id="mask0_9_8655" style="mask-type:alpha" maskUnits="userSpaceOnUse" x="0" y="0" width="24" height="24">
<rect width="24" height="24" fill="#D9D9D9"/>
</mask>
<g mask="url(#mask0_9_8655)">
<path d="M6.2 17.475C7.05 16.875 7.95 16.396 8.9 16.038C9.85 15.6793 10.8833 15.5 12 15.5C13.1167 15.5 14.15 15.6793 15.1 16.038C16.05 16.396 16.95 16.875 17.8 17.475C18.4667 16.7917 19 15.9873 19.4 15.062C19.8 14.1373 20 13.1167 20 12C20 9.78333 19.221 7.89567 17.663 6.337C16.1043 4.779 14.2167 4 12 4C9.78333 4 7.896 4.779 6.338 6.337C4.77933 7.89567 4 9.78333 4 12C4 13.1167 4.2 14.1373 4.6 15.062C5 15.9873 5.53333 16.7917 6.2 17.475ZM12 12.5C11.15 12.5 10.4377 12.2123 9.863 11.637C9.28767 11.0623 9 10.35 9 9.5C9 8.65 9.28767 7.93733 9.863 7.362C10.4377 6.78733 11.15 6.5 12 6.5C12.85 6.5 13.5623 6.78733 14.137 7.362C14.7123 7.93733 15 8.65 15 9.5C15 10.35 14.7123 11.0623 14.137 11.637C13.5623 12.2123 12.85 12.5 12 12.5ZM12 21C10.75 21 9.575 20.7667 8.475 20.3C7.375 19.8333 6.421 19.196 5.613 18.388C4.80433 17.5793 4.16667 16.625 3.7 15.525C3.23333 14.425 3 13.25 3 12C3 10.75 3.23333 9.575 3.7 8.475C4.16667 7.375 4.80433 6.42067 5.613 5.612C6.421 4.804 7.375 4.16667 8.475 3.7C9.575 3.23333 10.75 3 12 3C13.25 3 14.425 3.23333 15.525 3.7C16.625 4.16667 17.5793 4.804 18.388 5.612C19.196 6.42067 19.8333 7.375 20.3 8.475C20.7667 9.575 21 10.75 21 12C21 13.25 20.7667 14.425 20.3 15.525C19.8333 16.625 19.196 17.5793 18.388 18.388C17.5793 19.196 16.625 19.8333 15.525 20.3C14.425 20.7667 13.25 21 12 21ZM12 20C12.9167 20 13.821 19.8373 14.713 19.512C15.6043 19.1873 16.375 18.75 17.025 18.2C16.375 17.6667 15.625 17.25 14.775 16.95C13.925 16.65 13 16.5 12 16.5C11 16.5 10.071 16.65 9.213 16.95C8.35433 17.25 7.60833 17.6667 6.975 18.2C7.625 18.75 8.39567 19.1873 9.287 19.512C10.179 19.8373 11.0833 20 12 20ZM12 11.5C12.5667 11.5 13.0417 11.3083 13.425 10.925C13.8083 10.5417 14 10.0667 14 9.5C14 8.93333 13.8083 8.45833 13.425 8.075C13.0417 7.69167 12.5667 7.5 12 7.5C11.4333 7.5 10.9583 7.69167 10.575 8.075C10.1917 8.45833 10 8.93333 10 9.5C10 10.0667 10.1917 10.5417 10.575 10.925C10.9583 11.3083 11.4333 11.5 12 11.5Z" fill="white"/>
</g>
</svg>
