<svg width="56" height="56" viewBox="0 0 56 56" fill="none" xmlns="http://www.w3.org/2000/svg">
<rect x="4" y="4" width="48" height="48" rx="24" fill="#D1FADF"/>
<mask id="mask0_0_8379" style="mask-type:alpha" maskUnits="userSpaceOnUse" x="16" y="16" width="24" height="24">
<rect x="16" y="16" width="24" height="24" fill="#D9D9D9"/>
</mask>
<g mask="url(#mask0_0_8379)">
<path d="M32 29.5C32.4333 29.5 32.7917 29.3583 33.075 29.075C33.3583 28.7917 33.5 28.4333 33.5 28C33.5 27.5667 33.3583 27.2083 33.075 26.925C32.7917 26.6417 32.4333 26.5 32 26.5C31.5667 26.5 31.2083 26.6417 30.925 26.925C30.6417 27.2083 30.5 27.5667 30.5 28C30.5 28.4333 30.6417 28.7917 30.925 29.075C31.2083 29.3583 31.5667 29.5 32 29.5ZM21.3 36.5C20.8 36.5 20.375 36.325 20.025 35.975C19.675 35.625 19.5 35.2 19.5 34.7V21.3C19.5 20.8 19.675 20.375 20.025 20.025C20.375 19.675 20.8 19.5 21.3 19.5H34.7C35.2 19.5 35.625 19.675 35.975 20.025C36.325 20.375 36.5 20.8 36.5 21.3V24.025H35V21.3C35 21.2167 34.971 21.146 34.913 21.088C34.8543 21.0293 34.7833 21 34.7 21H21.3C21.2167 21 21.146 21.0293 21.088 21.088C21.0293 21.146 21 21.2167 21 21.3V34.7C21 34.7833 21.0293 34.8543 21.088 34.913C21.146 34.971 21.2167 35 21.3 35H34.7C34.7833 35 34.8543 34.971 34.913 34.913C34.971 34.8543 35 34.7833 35 34.7V31.975H36.5V34.7C36.5 35.2 36.325 35.625 35.975 35.975C35.625 36.325 35.2 36.5 34.7 36.5H21.3ZM29.3 32.5C28.8 32.5 28.375 32.325 28.025 31.975C27.675 31.625 27.5 31.2 27.5 30.7V25.3C27.5 24.8 27.675 24.375 28.025 24.025C28.375 23.675 28.8 23.5 29.3 23.5H35.7C36.2 23.5 36.625 23.675 36.975 24.025C37.325 24.375 37.5 24.8 37.5 25.3V30.7C37.5 31.2 37.325 31.625 36.975 31.975C36.625 32.325 36.2 32.5 35.7 32.5H29.3ZM35.7 31C35.7833 31 35.8543 30.9707 35.913 30.912C35.971 30.854 36 30.7833 36 30.7V25.3C36 25.2167 35.971 25.1457 35.913 25.087C35.8543 25.029 35.7833 25 35.7 25H29.3C29.2167 25 29.146 25.029 29.088 25.087C29.0293 25.1457 29 25.2167 29 25.3V30.7C29 30.7833 29.0293 30.854 29.088 30.912C29.146 30.9707 29.2167 31 29.3 31H35.7Z" fill="#1C1B1F"/>
</g>
<rect x="4" y="4" width="48" height="48" rx="24" stroke="#ECFDF3" stroke-width="8"/>
</svg>
