<svg width="22" height="27" viewBox="0 0 22 27" fill="none" xmlns="http://www.w3.org/2000/svg">
<path d="M11.0002 26.333C12.4668 26.333 13.6668 25.133 13.6668 23.6663H8.3335C8.3335 25.133 9.5335 26.333 11.0002 26.333ZM19.0002 18.333V11.6663C19.0002 7.57301 16.8268 4.14634 13.0002 3.23967V2.33301C13.0002 1.22634 12.1068 0.333008 11.0002 0.333008C9.8935 0.333008 9.00016 1.22634 9.00016 2.33301V3.23967C5.18683 4.14634 3.00016 7.55967 3.00016 11.6663V18.333L0.333496 20.9997V22.333H21.6668V20.9997L19.0002 18.333ZM16.3335 19.6663H5.66683V11.6663C5.66683 8.35967 7.68016 5.66634 11.0002 5.66634C14.3202 5.66634 16.3335 8.35967 16.3335 11.6663V19.6663Z" fill="#014342"/>
</svg>
