<svg width="80" height="80" viewBox="0 0 80 80" fill="none" xmlns="http://www.w3.org/2000/svg">
<circle cx="40" cy="40" r="40" fill="#FFE3A8"/>
<mask id="mask0_9_8826" style="mask-type:alpha" maskUnits="userSpaceOnUse" x="21" y="21" width="38" height="38">
<rect x="21.25" y="21.25" width="37.5" height="37.5" fill="#D9D9D9"/>
</mask>
<g mask="url(#mask0_9_8826)">
<path d="M38.0073 49.9604H41.6401V48.3979H43.3198C43.8146 48.3979 44.2381 48.2224 44.5901 47.8714C44.9412 47.5193 45.1167 47.0828 45.1167 46.562V41.562C45.1167 41.0672 44.9412 40.6443 44.5901 40.2933C44.2381 39.9412 43.8146 39.7651 43.3198 39.7651H38.5151V38.3589H45.1167V34.7261H41.9917V33.1636H38.3589V34.7261H36.6792C36.1844 34.7261 35.761 34.9016 35.4089 35.2526C35.0578 35.6047 34.8823 36.0412 34.8823 36.562V41.562C34.8823 42.0568 35.0578 42.4797 35.4089 42.8308C35.761 43.1828 36.1844 43.3589 36.6792 43.3589H41.4839V44.7651H34.8823V48.3979H38.0073V49.9604ZM30.8979 56.3667C29.7261 56.3667 28.7433 55.9693 27.9495 55.1745C27.1547 54.3808 26.7573 53.398 26.7573 52.2261V27.7729C26.7573 26.6011 27.1547 25.6177 27.9495 24.8229C28.7433 24.0292 29.7261 23.6323 30.8979 23.6323H43.437L53.2417 33.437V52.2261C53.2417 53.398 52.8443 54.3808 52.0495 55.1745C51.2558 55.9693 50.2729 56.3667 49.1011 56.3667H30.8979Z" fill="#1C1B1F"/>
</g>
</svg>
