<svg width="80" height="80" viewBox="0 0 80 80" fill="none" xmlns="http://www.w3.org/2000/svg">
<circle cx="40" cy="40" r="40" fill="#E4F2D1"/>
<mask id="mask0_9_8833" style="mask-type:alpha" maskUnits="userSpaceOnUse" x="21" y="21" width="38" height="38">
<rect x="21.25" y="21.25" width="37.5" height="37.5" fill="#D9D9D9"/>
</mask>
<g mask="url(#mask0_9_8833)">
<path d="M46.25 42.3438C46.9271 42.3438 47.487 42.1224 47.9297 41.6797C48.3724 41.237 48.5937 40.6771 48.5937 40C48.5937 39.3229 48.3724 38.763 47.9297 38.3203C47.487 37.8776 46.9271 37.6562 46.25 37.6562C45.5729 37.6562 45.013 37.8776 44.5703 38.3203C44.1276 38.763 43.9062 39.3229 43.9062 40C43.9062 40.6771 44.1276 41.237 44.5703 41.6797C45.013 42.1224 45.5729 42.3438 46.25 42.3438ZM41.6016 47.8125C40.7682 47.8125 40.0328 47.5 39.3953 46.875C38.7568 46.25 38.4375 45.5208 38.4375 44.6875V35.3516C38.4375 34.5182 38.7568 33.7823 39.3953 33.1437C40.0328 32.5062 40.7682 32.1875 41.6016 32.1875H53.2031C54.0625 32.1875 54.8047 32.5062 55.4297 33.1437C56.0547 33.7823 56.3672 34.5182 56.3672 35.3516V44.6875C56.3672 45.5208 56.0547 46.25 55.4297 46.875C54.8047 47.5 54.0625 47.8125 53.2031 47.8125H41.6016ZM29.3359 54.8047C28.1641 54.8047 27.1812 54.4073 26.3875 53.6125C25.5927 52.8187 25.1953 51.8359 25.1953 50.6641V29.3359C25.1953 28.1641 25.5927 27.1807 26.3875 26.3859C27.1812 25.5922 28.1641 25.1953 29.3359 25.1953H50.6641C51.8359 25.1953 52.8193 25.5922 53.6141 26.3859C54.4078 27.1807 54.8047 28.1641 54.8047 29.3359H41.6016C39.8568 29.3359 38.4182 29.9021 37.2859 31.0344C36.1526 32.1677 35.5859 33.6068 35.5859 35.3516V44.6875C35.5859 46.4583 36.1526 47.8969 37.2859 49.0031C38.4182 50.1104 39.8568 50.6641 41.6016 50.6641H54.8047C54.8047 51.8359 54.4078 52.8187 53.6141 53.6125C52.8193 54.4073 51.8359 54.8047 50.6641 54.8047H29.3359Z" fill="#1C1B1F"/>
</g>
</svg>
