<svg width="20" height="16" viewBox="0 0 20 16" fill="none" xmlns="http://www.w3.org/2000/svg">
<path d="M4 15.5C3.03333 15.5 2.20833 15.1583 1.525 14.475C0.841667 13.7917 0.5 12.9667 0.5 12V4C0.5 3.03333 0.841667 2.20833 1.525 1.525C2.20833 0.841667 3.03333 0.5 4 0.5H16C16.9667 0.5 17.7917 0.841667 18.475 1.525C19.1583 2.20833 19.5 3.03333 19.5 4V12C19.5 12.9667 19.1583 13.7917 18.475 14.475C17.7917 15.1583 16.9667 15.5 16 15.5H4ZM4 4.25H16C16.3833 4.25 16.7417 4.304 17.075 4.412C17.4083 4.52067 17.7167 4.68333 18 4.9V4C18 3.45 17.8043 2.97933 17.413 2.588C17.021 2.196 16.55 2 16 2H4C3.45 2 2.97933 2.196 2.588 2.588C2.196 2.97933 2 3.45 2 4V4.9C2.28333 4.68333 2.59167 4.52067 2.925 4.412C3.25833 4.304 3.61667 4.25 4 4.25ZM2.1 7.25L13.325 9.975C13.4583 10.0083 13.596 10.0083 13.738 9.975C13.8793 9.94167 14.0083 9.88333 14.125 9.8L17.725 6.775C17.5583 6.45833 17.321 6.20833 17.013 6.025C16.7043 5.84167 16.3667 5.75 16 5.75H4C3.53333 5.75 3.125 5.88733 2.775 6.162C2.425 6.43733 2.2 6.8 2.1 7.25Z" fill="#1C1B1F"/>
</svg>
