<svg width="24" height="24" viewBox="0 0 24 24" fill="none" xmlns="http://www.w3.org/2000/svg">
<mask id="mask0_9_8665" style="mask-type:alpha" maskUnits="userSpaceOnUse" x="0" y="0" width="24" height="24">
<rect width="24" height="24" fill="#D9D9D9"/>
</mask>
<g mask="url(#mask0_9_8665)">
<path d="M11.775 19C11.5583 19 11.375 18.925 11.225 18.775C11.075 18.625 11 18.4417 11 18.225V12.65L5.6 5.825C5.46667 5.64167 5.45 5.45833 5.55 5.275C5.65 5.09167 5.80834 5 6.025 5H17.975C18.1917 5 18.35 5.09167 18.45 5.275C18.55 5.45833 18.5333 5.64167 18.4 5.825L13 12.65V18.225C13 18.4417 12.925 18.625 12.775 18.775C12.625 18.925 12.4417 19 12.225 19H11.775ZM12 12.3L16.95 6H7.05L12 12.3Z" fill="#101010"/>
</g>
</svg>
