<svg width="48" height="48" viewBox="0 0 48 48" fill="none" xmlns="http://www.w3.org/2000/svg">
<rect width="48" height="48" rx="24" fill="#E5E5E5"/>
<rect x="6" y="6" width="36" height="36" rx="18" fill="#222222"/>
<mask id="mask0_9_8778" style="mask-type:alpha" maskUnits="userSpaceOnUse" x="12" y="12" width="24" height="24">
<rect x="12" y="12" width="24" height="24" fill="#D9D9D9"/>
</mask>
<g mask="url(#mask0_9_8778)">
<path d="M23.975 30.8C24.1583 30.8 24.3167 30.7333 24.45 30.6C24.5833 30.4667 24.65 30.3083 24.65 30.125V29.6C25.4333 29.5 26.1377 29.2083 26.763 28.725C27.3877 28.2417 27.7 27.5167 27.7 26.55C27.7 25.85 27.496 25.2293 27.088 24.688C26.6793 24.146 25.875 23.6583 24.675 23.225C23.625 22.875 22.925 22.5667 22.575 22.3C22.225 22.0333 22.05 21.6667 22.05 21.2C22.05 20.7333 22.2293 20.35 22.588 20.05C22.946 19.75 23.4333 19.6 24.05 19.6C24.4167 19.6 24.7417 19.6707 25.025 19.812C25.3083 19.954 25.5417 20.1417 25.725 20.375C25.8583 20.525 26.0043 20.6293 26.163 20.688C26.321 20.746 26.4667 20.7417 26.6 20.675C26.8 20.5917 26.9373 20.4583 27.012 20.275C27.0873 20.0917 27.0667 19.925 26.95 19.775C26.6833 19.3917 26.3543 19.075 25.963 18.825C25.571 18.575 25.15 18.4333 24.7 18.4V17.875C24.7 17.6917 24.6333 17.5333 24.5 17.4C24.3667 17.2667 24.2083 17.2 24.025 17.2C23.8417 17.2 23.6833 17.2667 23.55 17.4C23.4167 17.5333 23.35 17.6917 23.35 17.875V18.4C22.5 18.5667 21.846 18.9123 21.388 19.437C20.9293 19.9623 20.7 20.55 20.7 21.2C20.7 21.95 20.925 22.554 21.375 23.012C21.825 23.4707 22.5667 23.8833 23.6 24.25C24.6667 24.65 25.3917 25.004 25.775 25.312C26.1583 25.6207 26.35 26.0333 26.35 26.55C26.35 27.1833 26.125 27.6417 25.675 27.925C25.225 28.2083 24.7167 28.35 24.15 28.35C23.6667 28.35 23.2333 28.2293 22.85 27.988C22.4667 27.746 22.15 27.4 21.9 26.95C21.8 26.7833 21.6627 26.6667 21.488 26.6C21.3127 26.5333 21.1417 26.5333 20.975 26.6C20.8083 26.6667 20.6833 26.7917 20.6 26.975C20.5167 27.1583 20.5167 27.3333 20.6 27.5C20.8667 28.0667 21.225 28.5167 21.675 28.85C22.125 29.1833 22.6667 29.4167 23.3 29.55V30.125C23.3 30.3083 23.3667 30.4667 23.5 30.6C23.6333 30.7333 23.7917 30.8 23.975 30.8ZM24 33.5C22.6833 33.5 21.446 33.25 20.288 32.75C19.1293 32.25 18.125 31.575 17.275 30.725C16.425 29.875 15.75 28.8707 15.25 27.712C14.75 26.554 14.5 25.3167 14.5 24C14.5 22.6833 14.75 21.4457 15.25 20.287C15.75 19.129 16.425 18.125 17.275 17.275C18.125 16.425 19.1293 15.75 20.288 15.25C21.446 14.75 22.6833 14.5 24 14.5C25.3167 14.5 26.5543 14.75 27.713 15.25C28.871 15.75 29.875 16.425 30.725 17.275C31.575 18.125 32.25 19.129 32.75 20.287C33.25 21.4457 33.5 22.6833 33.5 24C33.5 25.3167 33.25 26.554 32.75 27.712C32.25 28.8707 31.575 29.875 30.725 30.725C29.875 31.575 28.871 32.25 27.713 32.75C26.5543 33.25 25.3167 33.5 24 33.5ZM24 32C26.2167 32 28.1043 31.221 29.663 29.663C31.221 28.1043 32 26.2167 32 24C32 21.7833 31.221 19.8957 29.663 18.337C28.1043 16.779 26.2167 16 24 16C21.7833 16 19.896 16.779 18.338 18.337C16.7793 19.8957 16 21.7833 16 24C16 26.2167 16.7793 28.1043 18.338 29.663C19.896 31.221 21.7833 32 24 32Z" fill="white"/>
</g>
</svg>
