<svg width="48" height="48" viewBox="0 0 48 48" fill="none" xmlns="http://www.w3.org/2000/svg">
<rect width="48" height="48" rx="24" fill="#D9D9D9"/>
<rect x="6" y="6" width="36" height="36" rx="18" fill="#222222"/>
<mask id="mask0_9_8772" style="mask-type:alpha" maskUnits="userSpaceOnUse" x="12" y="12" width="24" height="24">
<rect x="12" y="12" width="24" height="24" fill="#D9D9D9"/>
</mask>
<g mask="url(#mask0_9_8772)">
<path d="M17.2495 32.4996C16.9995 32.4996 16.7789 32.4246 16.5875 32.2746C16.3955 32.1246 16.2662 31.9246 16.1995 31.6746L13.5745 22.3246C13.4912 22.1246 13.5205 21.9369 13.6625 21.7616C13.8039 21.5869 13.9995 21.4996 14.2495 21.4996H19.2495L23.3745 15.3246C23.4412 15.2246 23.5289 15.1413 23.6375 15.0746C23.7455 15.0079 23.8662 14.9746 23.9995 14.9746C24.1162 14.9746 24.2329 15.0079 24.3495 15.0746C24.4662 15.1413 24.5495 15.2246 24.5995 15.3246L28.7245 21.4996H33.7495C33.9995 21.4996 34.1952 21.5869 34.3365 21.7616C34.4785 21.9369 34.5079 22.1246 34.4245 22.3246L31.7995 31.6746C31.7162 31.9246 31.5705 32.1246 31.3625 32.2746C31.1539 32.4246 30.9245 32.4996 30.6745 32.4996H17.2495ZM17.4995 30.9996H30.4995L32.6995 22.9996H15.2995L17.4995 30.9996ZM23.9995 28.4996C24.4162 28.4996 24.7702 28.3536 25.0615 28.0616C25.3535 27.7703 25.4995 27.4163 25.4995 26.9996C25.4995 26.5829 25.3535 26.2289 25.0615 25.9376C24.7702 25.6456 24.4162 25.4996 23.9995 25.4996C23.5829 25.4996 23.2289 25.6456 22.9375 25.9376C22.6455 26.2289 22.4995 26.5829 22.4995 26.9996C22.4995 27.4163 22.6455 27.7703 22.9375 28.0616C23.2289 28.3536 23.5829 28.4996 23.9995 28.4996ZM21.0745 21.4996H26.9245L23.9745 17.0996L21.0745 21.4996Z" fill="white"/>
</g>
</svg>
