<svg width="24" height="24" viewBox="0 0 24 24" fill="none" xmlns="http://www.w3.org/2000/svg">
<mask id="mask0_9_8660" style="mask-type:alpha" maskUnits="userSpaceOnUse" x="0" y="0" width="24" height="24">
<rect width="24" height="24" fill="#D9D9D9"/>
</mask>
<g mask="url(#mask0_9_8660)">
<path d="M10.625 16.0748H6.99999C5.86665 16.0748 4.90432 15.6788 4.11299 14.8868C3.32099 14.0955 2.92499 13.1331 2.92499 11.9998C2.92499 10.8665 3.32099 9.90414 4.11299 9.1128C4.90432 8.3208 5.86665 7.9248 6.99999 7.9248H10.625V8.9248H6.99999C6.14999 8.9248 5.42499 9.2248 4.82499 9.8248C4.22499 10.4248 3.92499 11.1498 3.92499 11.9998C3.92499 12.8498 4.22499 13.5748 4.82499 14.1748C5.42499 14.7748 6.14999 15.0748 6.99999 15.0748H10.625V16.0748ZM8.49999 12.4998V11.4998H15.5V12.4998H8.49999ZM13.375 16.0748V15.0748H17C17.85 15.0748 18.575 14.7748 19.175 14.1748C19.775 13.5748 20.075 12.8498 20.075 11.9998C20.075 11.1498 19.775 10.4248 19.175 9.8248C18.575 9.2248 17.85 8.9248 17 8.9248H13.375V7.9248H17C18.1333 7.9248 19.096 8.3208 19.888 9.1128C20.6793 9.90414 21.075 10.8665 21.075 11.9998C21.075 13.1331 20.6793 14.0955 19.888 14.8868C19.096 15.6788 18.1333 16.0748 17 16.0748H13.375Z" fill="#1C1B1F"/>
</g>
</svg>
