<svg width="24" height="24" viewBox="0 0 24 24" fill="none" xmlns="http://www.w3.org/2000/svg">
<mask id="mask0_9_8650" style="mask-type:alpha" maskUnits="userSpaceOnUse" x="0" y="0" width="24" height="24">
<rect width="24" height="24" fill="#D9D9D9"/>
</mask>
<g mask="url(#mask0_9_8650)">
<path d="M8.5 17.5H15.5V16.5H8.5V17.5ZM8.5 13.5H15.5V12.5H8.5V13.5ZM6.625 21C6.15833 21 5.771 20.846 5.463 20.538C5.15433 20.2293 5 19.8417 5 19.375V4.625C5 4.15833 5.15433 3.77067 5.463 3.462C5.771 3.154 6.15833 3 6.625 3H14.5L19 7.5V19.375C19 19.8417 18.846 20.2293 18.538 20.538C18.2293 20.846 17.8417 21 17.375 21H6.625ZM14 8V4H6.625C6.45833 4 6.31267 4.06267 6.188 4.188C6.06267 4.31267 6 4.45833 6 4.625V19.375C6 19.5417 6.06267 19.6873 6.188 19.812C6.31267 19.9373 6.45833 20 6.625 20H17.375C17.5417 20 17.6873 19.9373 17.812 19.812C17.9373 19.6873 18 19.5417 18 19.375V8H14Z" fill="white"/>
</g>
</svg>
