<svg width="56" height="56" viewBox="0 0 56 56" fill="none" xmlns="http://www.w3.org/2000/svg">
<rect x="4" y="4" width="48" height="48" rx="24" fill="#F2F4F7"/>
<mask id="mask0_0_8392" style="mask-type:alpha" maskUnits="userSpaceOnUse" x="16" y="16" width="25" height="25">
<rect x="16.2163" y="16.1914" width="24" height="24" fill="#D9D9D9"/>
</mask>
<g mask="url(#mask0_0_8392)">
<path d="M28.2163 38.6914C26.2663 38.6914 24.4957 38.2081 22.9043 37.2414C21.3123 36.2747 20.0663 34.9831 19.1663 33.3664V36.3414H17.6663V30.8414H23.1663V32.3414H20.3163C21.0497 33.8081 22.1247 34.9831 23.5413 35.8664C24.958 36.7497 26.5163 37.1914 28.2163 37.1914C29.433 37.1914 30.579 36.9664 31.6543 36.5164C32.729 36.0664 33.6707 35.4497 34.4793 34.6664C35.2873 33.8831 35.933 32.9581 36.4163 31.8914C36.8997 30.8247 37.1663 29.6747 37.2163 28.4414H38.7163C38.683 29.8581 38.383 31.1874 37.8163 32.4294C37.2497 33.6707 36.4953 34.7581 35.5533 35.6914C34.612 36.6247 33.5123 37.3581 32.2543 37.8914C30.9957 38.4247 29.6497 38.6914 28.2163 38.6914ZM27.5163 34.9914V33.7414C26.783 33.5747 26.1747 33.2704 25.6913 32.8284C25.208 32.3871 24.833 31.7997 24.5663 31.0664L25.8413 30.5414C26.0747 31.1914 26.4123 31.6874 26.8543 32.0294C27.2957 32.3707 27.7997 32.5414 28.3663 32.5414C28.933 32.5414 29.4413 32.3997 29.8913 32.1164C30.3413 31.8331 30.5663 31.3747 30.5663 30.7414C30.5663 30.2247 30.3747 29.8121 29.9913 29.5034C29.608 29.1954 28.883 28.8414 27.8163 28.4414C26.783 28.0747 26.0413 27.6621 25.5913 27.2034C25.1413 26.7454 24.9163 26.1414 24.9163 25.3914C24.9163 24.7414 25.1497 24.1497 25.6163 23.6164C26.083 23.0831 26.733 22.7414 27.5663 22.5914V21.3914H28.9163V22.5914C29.483 22.6414 30.004 22.8537 30.4793 23.2284C30.954 23.6037 31.2913 24.0581 31.4913 24.5914L30.2663 25.0914C30.0997 24.7247 29.8537 24.4164 29.5283 24.1664C29.2037 23.9164 28.783 23.7914 28.2663 23.7914C27.6497 23.7914 27.1623 23.9414 26.8043 24.2414C26.4457 24.5414 26.2663 24.9247 26.2663 25.3914C26.2663 25.8581 26.4413 26.2247 26.7913 26.4914C27.1413 26.7581 27.8413 27.0664 28.8913 27.4164C30.0913 27.8497 30.8957 28.3374 31.3043 28.8794C31.7123 29.4207 31.9163 30.0414 31.9163 30.7414C31.9163 31.2247 31.829 31.6454 31.6543 32.0034C31.479 32.3621 31.2497 32.6621 30.9663 32.9034C30.683 33.1454 30.358 33.3374 29.9913 33.4794C29.6247 33.6207 29.2497 33.7247 28.8663 33.7914V34.9914H27.5163ZM17.7163 27.9414C17.7663 26.4914 18.0747 25.1414 18.6413 23.8914C19.208 22.6414 19.9707 21.5537 20.9293 20.6284C21.8873 19.7037 22.9913 18.9831 24.2413 18.4664C25.4913 17.9497 26.8163 17.6914 28.2163 17.6914C30.1497 17.6914 31.9203 18.1747 33.5283 19.1414C35.137 20.1081 36.383 21.4164 37.2663 23.0664V20.0414H38.7663V25.5414H33.2663V24.0414H36.1163C35.3997 22.6081 34.333 21.4414 32.9163 20.5414C31.4997 19.6414 29.933 19.1914 28.2163 19.1914C27.0163 19.1914 25.883 19.4164 24.8163 19.8664C23.7497 20.3164 22.808 20.9287 21.9913 21.7034C21.1747 22.4787 20.5203 23.3997 20.0283 24.4664C19.537 25.5331 19.2663 26.6914 19.2163 27.9414H17.7163Z" fill="#1C1B1F"/>
</g>
<rect x="4" y="4" width="48" height="48" rx="24" stroke="#F9FAFB" stroke-width="8"/>
</svg>
