<svg width="48" height="48" viewBox="0 0 48 48" fill="none" xmlns="http://www.w3.org/2000/svg">
<path d="M23.475 30.625H24.475V29.45C25.1917 29.3833 25.8793 29.121 26.538 28.663C27.196 28.2043 27.525 27.5 27.525 26.55C27.525 25.85 27.3123 25.254 26.887 24.762C26.4623 24.2707 25.65 23.8083 24.45 23.375C23.3333 22.9917 22.625 22.6623 22.325 22.387C22.025 22.1123 21.875 21.7167 21.875 21.2C21.875 20.6833 22.071 20.2583 22.463 19.925C22.8543 19.5917 23.3833 19.425 24.05 19.425C24.55 19.425 24.9707 19.5417 25.312 19.775C25.654 20.0083 25.9333 20.3 26.15 20.65L27 20.3C26.7667 19.8167 26.425 19.4167 25.975 19.1C25.525 18.7833 25.0417 18.6 24.525 18.55V17.375H23.525V18.55C22.6583 18.7 22 19.029 21.55 19.537C21.1 20.0457 20.875 20.6 20.875 21.2C20.875 21.9167 21.104 22.4917 21.562 22.925C22.0207 23.3583 22.7833 23.7667 23.85 24.15C24.9333 24.55 25.6583 24.9083 26.025 25.225C26.3917 25.5417 26.575 25.9833 26.575 26.55C26.575 27.25 26.3167 27.754 25.8 28.062C25.2833 28.3707 24.7333 28.525 24.15 28.525C23.5667 28.525 23.046 28.3583 22.588 28.025C22.1293 27.6917 21.7583 27.2167 21.475 26.6L20.6 26.975C20.8833 27.6583 21.2667 28.1917 21.75 28.575C22.2333 28.9583 22.8083 29.2333 23.475 29.4V30.625ZM24 33C22.75 33 21.5793 32.7627 20.488 32.288C19.396 31.8127 18.446 31.1707 17.638 30.362C16.8293 29.554 16.1873 28.604 15.712 27.512C15.2373 26.4207 15 25.25 15 24C15 22.75 15.2373 21.579 15.712 20.487C16.1873 19.3957 16.8293 18.4457 17.638 17.637C18.446 16.829 19.396 16.1873 20.488 15.712C21.5793 15.2373 22.75 15 24 15C25.25 15 26.421 15.2373 27.513 15.712C28.6043 16.1873 29.5543 16.829 30.363 17.637C31.171 18.4457 31.8127 19.3957 32.288 20.487C32.7627 21.579 33 22.75 33 24C33 25.25 32.7627 26.4207 32.288 27.512C31.8127 28.604 31.171 29.554 30.363 30.362C29.5543 31.1707 28.6043 31.8127 27.513 32.288C26.421 32.7627 25.25 33 24 33ZM24 32C26.2167 32 28.1043 31.221 29.663 29.663C31.221 28.1043 32 26.2167 32 24C32 21.7833 31.221 19.8957 29.663 18.337C28.1043 16.779 26.2167 16 24 16C21.7833 16 19.896 16.779 18.338 18.337C16.7793 19.8957 16 21.7833 16 24C16 26.2167 16.7793 28.1043 18.338 29.663C19.896 31.221 21.7833 32 24 32Z" fill="black"/>
<rect x="0.5" y="0.5" width="47" height="47" rx="23.5" stroke="black"/>
</svg>
