<svg width="76" height="10" viewBox="0 0 76 10" fill="none" xmlns="http://www.w3.org/2000/svg">
<path d="M4.22727 6.27273H5.38636L6.35795 7.55114L6.61364 7.89205L8.0625 9.81818H6.90341L5.94886 8.53977L5.71023 8.21591L4.22727 6.27273ZM8.42045 4.63636C8.42045 5.55682 8.25426 6.35227 7.92188 7.02273C7.58949 7.69318 7.13352 8.21023 6.55398 8.57386C5.97443 8.9375 5.3125 9.11932 4.56818 9.11932C3.82386 9.11932 3.16193 8.9375 2.58239 8.57386C2.00284 8.21023 1.54688 7.69318 1.21449 7.02273C0.882102 6.35227 0.715909 5.55682 0.715909 4.63636C0.715909 3.71591 0.882102 2.92045 1.21449 2.25C1.54688 1.57955 2.00284 1.0625 2.58239 0.698864C3.16193 0.335227 3.82386 0.153409 4.56818 0.153409C5.3125 0.153409 5.97443 0.335227 6.55398 0.698864C7.13352 1.0625 7.58949 1.57955 7.92188 2.25C8.25426 2.92045 8.42045 3.71591 8.42045 4.63636ZM7.39773 4.63636C7.39773 3.88068 7.27131 3.2429 7.01847 2.72301C6.76847 2.20312 6.42898 1.80966 6 1.54261C5.57386 1.27557 5.09659 1.14205 4.56818 1.14205C4.03977 1.14205 3.56108 1.27557 3.1321 1.54261C2.70597 1.80966 2.36648 2.20312 2.11364 2.72301C1.86364 3.2429 1.73864 3.88068 1.73864 4.63636C1.73864 5.39205 1.86364 6.02983 2.11364 6.54972C2.36648 7.0696 2.70597 7.46307 3.1321 7.73011C3.56108 7.99716 4.03977 8.13068 4.56818 8.13068C5.09659 8.13068 5.57386 7.99716 6 7.73011C6.42898 7.46307 6.76847 7.0696 7.01847 6.54972C7.27131 6.02983 7.39773 5.39205 7.39773 4.63636ZM15.9247 0.272727H16.9815V6.05114C16.9815 6.64773 16.8409 7.1804 16.5597 7.64915C16.2813 8.11506 15.8878 8.48295 15.3793 8.75284C14.8707 9.01989 14.2741 9.15341 13.5895 9.15341C12.9048 9.15341 12.3082 9.01989 11.7997 8.75284C11.2912 8.48295 10.8963 8.11506 10.6151 7.64915C10.3366 7.1804 10.1974 6.64773 10.1974 6.05114V0.272727H11.2543V5.96591C11.2543 6.39205 11.348 6.77131 11.5355 7.10369C11.723 7.43324 11.9901 7.69318 12.3366 7.88352C12.6861 8.07102 13.1037 8.16477 13.5895 8.16477C14.0753 8.16477 14.4929 8.07102 14.8423 7.88352C15.1918 7.69318 15.4588 7.43324 15.6435 7.10369C15.831 6.77131 15.9247 6.39205 15.9247 5.96591V0.272727ZM20.1488 0.272727V9H19.092V0.272727H20.1488ZM29.2905 3H28.2337C28.1712 2.69602 28.0618 2.42898 27.9055 2.19886C27.7521 1.96875 27.5646 1.77557 27.343 1.61932C27.1243 1.46023 26.8814 1.34091 26.6143 1.26136C26.3473 1.18182 26.0689 1.14205 25.7791 1.14205C25.2507 1.14205 24.772 1.27557 24.343 1.54261C23.9169 1.80966 23.5774 2.20312 23.3246 2.72301C23.0746 3.2429 22.9496 3.88068 22.9496 4.63636C22.9496 5.39205 23.0746 6.02983 23.3246 6.54972C23.5774 7.0696 23.9169 7.46307 24.343 7.73011C24.772 7.99716 25.2507 8.13068 25.7791 8.13068C26.0689 8.13068 26.3473 8.09091 26.6143 8.01136C26.8814 7.93182 27.1243 7.81392 27.343 7.65767C27.5646 7.49858 27.7521 7.30398 27.9055 7.07386C28.0618 6.84091 28.1712 6.57386 28.2337 6.27273H29.2905C29.2109 6.71875 29.0661 7.1179 28.8558 7.47017C28.6456 7.82244 28.3842 8.12216 28.0717 8.36932C27.7592 8.61364 27.4084 8.79972 27.0192 8.92756C26.6328 9.0554 26.2195 9.11932 25.7791 9.11932C25.0348 9.11932 24.3729 8.9375 23.7933 8.57386C23.2138 8.21023 22.7578 7.69318 22.4254 7.02273C22.093 6.35227 21.9268 5.55682 21.9268 4.63636C21.9268 3.71591 22.093 2.92045 22.4254 2.25C22.7578 1.57955 23.2138 1.0625 23.7933 0.698864C24.3729 0.335227 25.0348 0.153409 25.7791 0.153409C26.2195 0.153409 26.6328 0.217329 27.0192 0.34517C27.4084 0.473011 27.7592 0.660511 28.0717 0.90767C28.3842 1.15199 28.6456 1.45028 28.8558 1.80256C29.0661 2.15199 29.2109 2.55114 29.2905 3ZM30.9982 9V0.272727H32.055V4.60227H32.1573L36.0778 0.272727H37.4585L33.7937 4.21023L37.4585 9H36.18L33.146 4.94318L32.055 6.17045V9H30.9982ZM42.2013 0.272727H43.4627L46.4286 7.51705H46.5309L49.4968 0.272727H50.7582V9H49.7695V2.36932H49.6843L46.957 9H46.0025L43.2752 2.36932H43.19V9H42.2013V0.272727ZM52.8771 9V0.272727H58.1442V1.21023H53.9339V4.15909H57.8714V5.09659H53.9339V8.0625H58.2124V9H52.8771ZM66.9695 0.272727V9H65.9467L61.1911 2.14773H61.1058V9H60.049V0.272727H61.0717L65.8445 7.14205H65.9297V0.272727H66.9695ZM74.8114 0.272727H75.8683V6.05114C75.8683 6.64773 75.7276 7.1804 75.4464 7.64915C75.168 8.11506 74.7745 8.48295 74.266 8.75284C73.7575 9.01989 73.1609 9.15341 72.4762 9.15341C71.7915 9.15341 71.195 9.01989 70.6864 8.75284C70.1779 8.48295 69.783 8.11506 69.5018 7.64915C69.2234 7.1804 69.0842 6.64773 69.0842 6.05114V0.272727H70.141V5.96591C70.141 6.39205 70.2347 6.77131 70.4222 7.10369C70.6097 7.43324 70.8768 7.69318 71.2234 7.88352C71.5728 8.07102 71.9904 8.16477 72.4762 8.16477C72.962 8.16477 73.3796 8.07102 73.729 7.88352C74.0785 7.69318 74.3455 7.43324 74.5302 7.10369C74.7177 6.77131 74.8114 6.39205 74.8114 5.96591V0.272727Z" fill="#808080"/>
</svg>
