<svg width="56" height="56" viewBox="0 0 56 56" fill="none" xmlns="http://www.w3.org/2000/svg">
<rect x="4" y="4" width="48" height="48" rx="24" fill="#FFD580"/>
<mask id="mask0_0_8404" style="mask-type:alpha" maskUnits="userSpaceOnUse" x="15" y="16" width="25" height="25">
<rect x="15.7158" y="16.3574" width="24" height="24" fill="#D9D9D9"/>
</mask>
<g mask="url(#mask0_0_8404)">
<path d="M21.7158 37.8574C21.0158 37.8574 20.4242 37.6157 19.9408 37.1324C19.4575 36.649 19.2158 36.0574 19.2158 35.3574V32.8574H22.2158V19.0574L23.5908 20.2324L25.0158 19.0574L26.4158 20.2324L27.8158 19.0574L29.2158 20.2324L30.6158 19.0574L32.0158 20.2324L33.4158 19.0574L34.8408 20.2324L36.2158 19.0574V35.3574C36.2158 36.0574 35.9742 36.649 35.4908 37.1324C35.0075 37.6157 34.4158 37.8574 33.7158 37.8574H21.7158ZM33.7158 36.3574C33.9992 36.3574 34.2365 36.2614 34.4278 36.0694C34.6198 35.878 34.7158 35.6407 34.7158 35.3574V21.3574H23.7158V32.8574H32.7158V35.3574C32.7158 35.6407 32.8118 35.878 33.0038 36.0694C33.1952 36.2614 33.4325 36.3574 33.7158 36.3574ZM24.9158 25.1074V23.6074H30.5908V25.1074H24.9158ZM24.9158 28.1074V26.6074H30.5908V28.1074H24.9158ZM32.6658 25.2324C32.4158 25.2324 32.2032 25.149 32.0278 24.9824C31.8532 24.8157 31.7658 24.6074 31.7658 24.3574C31.7658 24.1074 31.8532 23.899 32.0278 23.7324C32.2032 23.5657 32.4158 23.4824 32.6658 23.4824C32.8992 23.4824 33.1032 23.5657 33.2778 23.7324C33.4532 23.899 33.5408 24.1074 33.5408 24.3574C33.5408 24.6074 33.4532 24.8157 33.2778 24.9824C33.1032 25.149 32.8992 25.2324 32.6658 25.2324ZM32.6658 28.2324C32.4158 28.2324 32.2032 28.149 32.0278 27.9824C31.8532 27.8157 31.7658 27.6074 31.7658 27.3574C31.7658 27.1074 31.8532 26.899 32.0278 26.7324C32.2032 26.5657 32.4158 26.4824 32.6658 26.4824C32.8992 26.4824 33.1032 26.5657 33.2778 26.7324C33.4532 26.899 33.5408 27.1074 33.5408 27.3574C33.5408 27.6074 33.4532 27.8157 33.2778 27.9824C33.1032 28.149 32.8992 28.2324 32.6658 28.2324ZM21.7158 36.3574H31.2158V34.3574H20.7158V35.3574C20.7158 35.6407 20.8115 35.878 21.0028 36.0694C21.1948 36.2614 21.4325 36.3574 21.7158 36.3574Z" fill="#1C1B1F"/>
</g>
<rect x="4" y="4" width="48" height="48" rx="24" stroke="#FFBD2E" stroke-opacity="0.2" stroke-width="8"/>
</svg>
