<svg width="38" height="48" viewBox="0 0 38 48" fill="none" xmlns="http://www.w3.org/2000/svg">
<path d="M17.8958 39.4H20.5625V26.8667L26.1625 32.4667L28.0292 30.5333L19.2292 21.7333L10.4292 30.5333L12.2958 32.4667L17.8958 26.8667V39.4ZM4.89583 48C3.65139 48 2.6185 47.5893 1.79717 46.768C0.974055 45.9449 0.5625 44.9111 0.5625 43.6667V4.33333C0.5625 3.08889 0.974055 2.05511 1.79717 1.232C2.6185 0.410666 3.65139 0 4.89583 0H25.8958L37.8958 12V43.6667C37.8958 44.9111 37.4852 45.9449 36.6638 46.768C35.8407 47.5893 34.8069 48 33.5625 48H4.89583ZM24.5625 13.3333V2.66667H4.89583C4.45139 2.66667 4.06294 2.83378 3.7305 3.168C3.39628 3.50045 3.22917 3.88889 3.22917 4.33333V43.6667C3.22917 44.1111 3.39628 44.4996 3.7305 44.832C4.06294 45.1662 4.45139 45.3333 4.89583 45.3333H33.5625C34.0069 45.3333 34.3954 45.1662 34.7278 44.832C35.0621 44.4996 35.2292 44.1111 35.2292 43.6667V13.3333H24.5625Z" fill="#CCCCCC"/>
</svg>
